<?xml version="1.0" encoding="UTF-8" standalone="no"?><!DOCTYPE svg PUBLIC "-//W3C//DTD SVG 1.1//EN" "http://www.w3.org/Graphics/SVG/1.1/DTD/svg11.dtd"><svg width="100%" height="100%" viewBox="0 0 1050 600" version="1.1" xmlns="http://www.w3.org/2000/svg" xmlns:xlink="http://www.w3.org/1999/xlink" xml:space="preserve" xmlns:serif="http://www.serif.com/" style="fill-rule:evenodd;clip-rule:evenodd;stroke-linecap:round;stroke-linejoin:round;stroke-miterlimit:1.5;"><rect id="_2022-05-16-Final-This-one" serif:id="2022-05-16-Final This one" x="0" y="-0" width="1050" height="600" style="fill:none;"/><clipPath id="_clip1"><rect x="0" y="-0" width="1050" height="600"/></clipPath><g clip-path="url(#_clip1)"><g><rect x="-0" y="0" width="1050" height="600" style="fill:#fefce8;"/><rect x="46.24" y="58.693" width="957.521" height="492.561" style="fill:none;stroke:#0a3d1e;stroke-width:18.75px;"/><g><path d="M348.221,8.92c17.217,1.918 28.869,24.353 26.005,50.07c-2.864,25.716 -19.168,45.037 -36.385,43.12c-17.216,-1.918 -28.869,-24.353 -26.004,-50.07c2.864,-25.716 19.168,-45.037 36.384,-43.12Z" style="fill:#fefce8;stroke:#0a3d1e;stroke-opacity:0;stroke-width:18.75px;"/><path d="M272.237,203.473c-0,-6.149 -1.073,-12.298 -3.485,-12.298c-2.413,-0 -31.632,64.746 -45.571,64.746c-5.362,-0 -6.166,-3.256 -6.166,-7.596c0,-15.554 30.292,-89.343 33.776,-99.109c3.753,-9.766 6.97,-15.915 6.97,-25.681c0,-6.511 -12.867,-15.554 -22.785,-15.554c-14.744,0 -45.304,48.108 -50.129,54.618l-0.268,-0.361c1.341,-6.149 10.455,-32.916 10.455,-41.959c-0,-10.127 -14.476,-14.83 -18.497,-14.83c-11.795,0 -62.995,144.684 -62.995,161.685c-0,13.383 11.795,24.234 17.156,24.234c5.629,0 10.991,-21.341 25.734,-51.724c15.012,-30.746 43.963,-74.513 58.707,-93.683l1.072,0.723c-6.97,13.022 -35.117,71.619 -35.117,112.854c0,18.809 12.063,32.192 24.662,32.192c26.271,-0 66.481,-77.768 66.481,-88.257Z" style="fill:#0b3e1f;fill-rule:nonzero;"/><path d="M368.204,52.278c0,-17.362 -10.991,-29.66 -23.59,-29.66c-13.403,-0 -26.002,14.468 -26.002,33.277c0,17.362 10.991,29.66 23.59,29.66c13.403,0 26.002,-14.468 26.002,-33.277Zm-24.93,152.28c0,-5.064 -0.268,-13.383 -3.217,-13.383c-2.412,-0 -33.24,68.363 -49.86,68.363c-2.144,-0 -3.753,-2.171 -3.753,-7.596c0,-24.958 40.21,-119.726 45.839,-134.195c0.536,-1.085 0.805,-2.17 0.805,-2.893c-0,-6.149 -9.383,-7.958 -16.084,-7.958c-3.217,0 -5.898,0.362 -6.97,0.724c-13.671,7.595 -55.49,98.746 -55.49,142.875c0,20.617 8.578,41.597 21.982,41.597c27.879,-0 66.748,-81.023 66.748,-87.534Z" style="fill:#0b3e1f;fill-rule:nonzero;"/><path d="M455.057,204.558c0,-4.341 0,-12.66 -3.216,-12.66c-3.217,-0 -32.168,74.874 -71.842,74.874c-8.042,-0 -16.888,-9.405 -16.888,-24.958c-0,-44.852 42.89,-114.3 52.273,-114.3c2.68,-0 3.485,3.255 3.485,8.319c-0,19.894 -7.506,43.043 -9.383,47.022c-1.876,3.617 -3.217,3.617 -3.217,4.702c0,1.086 -0.268,1.809 1.609,1.809c4.021,-0 11.795,-3.617 18.764,-8.681c6.702,-4.702 17.693,-18.809 17.693,-38.703c-0,-27.128 -9.383,-35.448 -21.714,-35.448c-8.578,0 -10.99,3.256 -19.568,3.256c-36.993,-0 -74.791,83.555 -74.791,129.492c0,39.065 17.693,57.15 37.798,57.15c52.54,0 88.997,-85.363 88.997,-91.874Z" style="fill:#0b3e1f;fill-rule:nonzero;"/><path d="M558.531,203.834c-0,-5.425 -0.268,-11.936 -3.217,-11.936c-3.217,-0 -32.704,71.619 -68.357,71.619c-9.918,-0 -14.207,-10.128 -14.207,-26.044c-0,-8.681 2.144,-18.809 5.629,-29.66c0.804,0.362 1.608,0.362 2.413,0.362c43.158,-0 72.913,-47.022 72.913,-74.151c0,-14.106 -8.041,-27.49 -16.62,-27.49c-5.629,0 -10.722,3.979 -20.373,3.979c-35.92,0 -76.13,82.47 -76.13,128.407c-0,29.66 14.207,54.618 32.436,54.618c44.499,0 85.513,-76.682 85.513,-89.704Zm-24.662,-70.171c-0,20.617 -27.611,49.916 -48.788,56.065c13.403,-31.831 34.58,-62.214 43.962,-62.214c3.217,-0 4.826,2.17 4.826,6.149Z" style="fill:#0b3e1f;fill-rule:nonzero;"/><g><rect x="697.036" y="39.622" width="174.822" height="34.22" style="fill:#fefce8;"/><path d="M882.275,39.622l-0,34.22c-0,5.753 -4.664,10.417 -10.417,10.417l-174.822,0c-5.753,0 -10.417,-4.664 -10.417,-10.417l0,-34.22c0,-5.752 4.664,-10.416 10.417,-10.416l174.822,-0c5.753,-0 10.417,4.664 10.417,10.416Zm-10.417,0l-174.822,0l-0,34.22l174.822,0l0,-34.22Z" style="fill:#fefce8;"/><path id="path285" d="M742.462,38.046c-13.983,1.957 -27.666,6.433 -40.395,12.482c-4.236,2.013 -8.326,4.316 -12.489,6.473c-20.825,10.997 -35.934,21.381 -52.057,38.149c-10.061,10.463 -18.037,19.683 -24.68,32.752c-3.371,6.632 -5.474,13.831 -8.211,20.747c-5.163,20.627 -9.517,42.729 -3.666,63.845c3.875,13.984 12.221,27.236 21.69,38.057c4.806,5.491 10.593,10.046 15.89,15.069c5.84,3.97 11.319,8.525 17.519,11.911c19.425,10.606 41.714,15.342 63.718,15.738c18.878,0.34 26.606,-1.728 45.112,-4.684c21.13,-4.65 42.003,-10.701 61.495,-20.223c15.629,-7.636 33.999,-19.817 47.214,-29.816c5.404,-4.088 10.079,-9.052 15.119,-13.578c10.177,-12.084 15.664,-16.858 22.161,-31.445c7.091,-15.922 10.81,-37.246 10.341,-54.649c-0.156,-5.808 -1.193,-11.559 -1.79,-17.338c-4.083,-21.287 -11.632,-41.84 -28.292,-56.638c-10.338,-9.182 -19.311,-13.512 -31.192,-20.313c-5.651,-2.33 -11.201,-4.921 -16.953,-6.991c-10.682,-3.843 -23.193,-6.954 -34.286,-9.252c-10.992,-2.277 -22.886,-4.273 -34.131,-4.904c-5.166,-0.291 -10.349,-0.029 -15.524,-0.043c-10.197,1.136 -17.746,1.497 -27.595,4.431c-7.257,2.161 -18.633,7.221 -25.862,10.309l-6.199,4.869c3.519,-1.423 6.948,-3.09 10.557,-4.267c3.439,-1.122 7.012,-1.79 10.535,-2.613c15.922,-3.715 10.803,-2.62 27.522,-4.733c5.2,-0.063 10.405,-0.411 15.6,-0.188c11.517,0.497 22.958,2.34 34.23,4.627c10.497,2.13 24.098,5.491 34.239,9.032c5.745,2.007 11.297,4.528 16.946,6.792c12.115,6.844 20.394,10.656 30.859,20.033c16.326,14.629 23.934,34.921 27.941,55.883c0.566,5.722 1.556,11.419 1.698,17.167c0.605,24.623 -5.759,50.222 -20.248,70.39c-3.774,5.253 -8.417,9.829 -12.626,14.743c-5.021,4.476 -10.14,8.845 -15.062,13.43c-2.221,2.069 -3.844,4.81 -6.355,6.52c-5.875,4.001 -12.214,7.312 -18.588,10.467c-19.418,9.612 -40.266,15.713 -61.334,20.502c-18.415,3.052 -26.107,5.162 -44.899,4.925c-21.835,-0.276 -43.832,-4.886 -63.148,-15.313c-6.167,-3.329 -11.643,-7.792 -17.465,-11.688c-13.137,-12.38 -19.554,-16.574 -28.6,-32.567c-11.26,-19.906 -12.836,-39.172 -9.522,-61.414c1.087,-7.294 3.258,-14.387 4.888,-21.581c2.772,-6.84 4.925,-13.963 8.318,-20.52c8.925,-17.255 24.342,-33.592 39.147,-46.044c4.912,-4.13 10.6,-7.284 15.442,-11.507c4.146,-2.184 8.221,-4.505 12.438,-6.551c12.904,-6.261 26.656,-10.646 40.752,-13.291l9.798,-7.192l0,-0Z" style="fill:#0b3e1f;fill-rule:nonzero;"/><path d="M689.258,45.391c-0.909,-3.859 0.449,-8.021 3.707,-10.58l6.199,-4.868c0.717,-0.563 1.504,-1.029 2.342,-1.387c7.538,-3.22 19.413,-8.46 26.981,-10.714c10.503,-3.128 18.541,-3.588 29.415,-4.799c0.392,-0.044 0.787,-0.065 1.181,-0.064c5.36,0.014 10.729,-0.242 16.08,0.058c11.748,0.66 24.177,2.726 35.661,5.105c11.551,2.393 24.575,5.648 35.698,9.651c5.902,2.123 11.601,4.771 17.399,7.162c0.413,0.171 0.815,0.368 1.204,0.59c12.564,7.193 22,11.854 32.933,21.565c18.421,16.363 27.09,38.926 31.605,62.464c0.057,0.295 0.101,0.593 0.132,0.892c0.623,6.042 1.678,12.057 1.841,18.128c0.508,18.844 -3.56,41.927 -11.239,59.167c-6.988,15.692 -12.761,20.918 -23.709,33.917c-0.311,0.369 -0.647,0.717 -1.007,1.039c-5.256,4.721 -10.157,9.872 -15.794,14.136c-13.691,10.359 -32.735,22.958 -48.927,30.868c-20.235,9.886 -41.891,16.21 -63.828,21.038c-0.198,0.043 -0.396,0.081 -0.596,0.113c-19.255,3.075 -27.301,5.166 -46.942,4.812c-23.671,-0.426 -47.627,-5.602 -68.523,-17.011c-6.496,-3.547 -12.265,-8.278 -18.383,-12.438c-0.465,-0.316 -0.904,-0.67 -1.312,-1.057c-5.531,-5.245 -11.543,-10.034 -16.56,-15.767c-10.471,-11.965 -19.606,-26.673 -23.89,-42.135c-6.336,-22.866 -1.992,-46.82 3.599,-69.157c0.111,-0.443 0.251,-0.879 0.419,-1.304c2.857,-7.216 5.093,-14.712 8.611,-21.634c7.14,-14.045 15.644,-24.005 26.457,-35.251c16.95,-17.628 32.809,-28.579 54.702,-40.14c0.023,-0.013 0.047,-0.025 0.071,-0.037c1.497,-0.776 2.985,-1.569 4.473,-2.362Zm53.204,3.071l6.164,-2.019l-9.798,7.192c-1.259,0.924 -2.709,1.553 -4.243,1.841c-13.187,2.474 -26.054,6.567 -38.126,12.424c-3.767,1.828 -7.416,3.886 -11.106,5.852c-4.666,3.863 -9.98,6.909 -14.616,10.807c-13.806,11.612 -28.277,26.767 -36.6,42.857c-3.116,6.023 -5.101,12.56 -7.599,18.857c-1.55,6.659 -3.549,13.234 -4.556,19.994c-2.952,19.818 -1.747,37.014 8.286,54.75c8.253,14.592 14.274,18.491 26.055,29.531c5.277,3.596 10.272,7.653 15.891,10.687c17.837,9.629 38.169,13.808 58.331,14.063c17.922,0.226 25.313,-1.834 42.759,-4.735c20.166,-4.597 40.133,-10.409 58.722,-19.611c5.944,-2.943 11.866,-6.01 17.345,-9.742c2.079,-1.415 3.28,-3.819 5.119,-5.532c4.811,-4.482 9.808,-8.762 14.72,-13.128c3.891,-4.484 8.147,-8.682 11.608,-13.501c13.178,-18.343 18.844,-41.661 18.294,-64.056c-0.131,-5.332 -1.054,-10.614 -1.602,-15.914c-3.597,-18.573 -10.104,-36.667 -24.575,-49.634c-9.651,-8.648 -17.377,-12.171 -28.428,-18.382c-5.281,-2.138 -10.481,-4.488 -15.86,-6.366c-9.735,-3.401 -22.798,-6.614 -32.875,-8.659c-10.739,-2.178 -21.636,-3.955 -32.607,-4.428c-4.054,-0.174 -8.112,0.023 -12.168,0.136c-3.001,3.418 -8.535,6.716 -8.535,6.716Zm0,0l6.672,-6.671c-0.131,0.002 -0.261,0.005 -0.392,0.007c-2.819,0.354 -4.967,0.611 -6.687,0.814l0.407,5.85Zm0,0c0,0 -2.164,-2.673 -4.519,-5.351c-0.253,0.033 -0.497,0.065 -0.734,0.098l5.253,5.253Zm0,-10.416c-13.983,1.957 -27.666,6.433 -40.395,12.482c-4.236,2.013 -8.326,4.316 -12.489,6.473c-20.825,10.997 -35.934,21.381 -52.057,38.149c-10.061,10.463 -18.037,19.683 -24.68,32.752c-3.371,6.632 -5.474,13.831 -8.211,20.747c-5.163,20.627 -9.517,42.729 -3.666,63.845c3.875,13.984 12.221,27.236 21.69,38.057c4.806,5.491 10.593,10.046 15.89,15.069c5.84,3.97 11.319,8.525 17.519,11.911c19.425,10.606 41.714,15.342 63.718,15.738c18.878,0.34 26.606,-1.728 45.112,-4.684c21.13,-4.65 42.003,-10.701 61.495,-20.223c15.629,-7.636 33.999,-19.817 47.214,-29.816c5.404,-4.088 10.079,-9.052 15.119,-13.578c10.177,-12.084 15.664,-16.858 22.161,-31.445c7.091,-15.922 10.81,-37.246 10.341,-54.649c-0.156,-5.808 -1.193,-11.559 -1.79,-17.338c-4.083,-21.287 -11.632,-41.84 -28.292,-56.638c-10.338,-9.182 -19.311,-13.512 -31.192,-20.313c-5.651,-2.33 -11.201,-4.921 -16.953,-6.991c-10.682,-3.843 -23.193,-6.954 -34.286,-9.252c-10.992,-2.277 -22.886,-4.273 -34.131,-4.904c-5.166,-0.291 -10.349,-0.029 -15.524,-0.043c-10.197,1.136 -17.746,1.497 -27.595,4.431c-7.257,2.161 -18.633,7.221 -25.862,10.309l-6.199,4.869c3.519,-1.423 6.948,-3.09 10.557,-4.267c3.439,-1.122 7.012,-1.79 10.535,-2.613c15.922,-3.715 10.803,-2.62 27.522,-4.733c5.2,-0.063 10.405,-0.411 15.6,-0.188c11.517,0.497 22.958,2.34 34.23,4.627c10.497,2.13 24.098,5.491 34.239,9.032c5.745,2.007 11.297,4.528 16.946,6.792c12.115,6.844 20.394,10.656 30.859,20.033c16.326,14.629 23.934,34.921 27.941,55.883c0.566,5.722 1.556,11.419 1.698,17.167c0.605,24.623 -5.759,50.222 -20.248,70.39c-3.774,5.253 -8.417,9.829 -12.626,14.743c-5.021,4.476 -10.14,8.845 -15.062,13.43c-2.221,2.069 -3.844,4.81 -6.355,6.52c-5.875,4.001 -12.214,7.312 -18.588,10.467c-19.418,9.612 -40.266,15.713 -61.334,20.502c-18.415,3.052 -26.107,5.162 -44.899,4.925c-21.835,-0.276 -43.832,-4.886 -63.148,-15.313c-6.167,-3.329 -11.643,-7.792 -17.465,-11.688c-13.137,-12.38 -19.554,-16.574 -28.6,-32.567c-11.26,-19.906 -12.836,-39.172 -9.522,-61.414c1.087,-7.294 3.258,-14.387 4.888,-21.581c2.772,-6.84 4.925,-13.963 8.318,-20.52c8.925,-17.255 24.342,-33.592 39.147,-46.044c4.912,-4.13 10.6,-7.284 15.442,-11.507c4.146,-2.184 8.221,-4.505 12.438,-6.551c12.904,-6.261 26.656,-10.646 40.752,-13.291l9.798,-7.192Z" style="fill:#fefce8;"/><path id="path112" d="M702.632,87.642c-0.477,26.514 -3.089,52.931 -6.091,79.261c-1.832,13.876 -3.615,27.779 -6.072,41.565c-0.393,2.204 -0.797,4.41 -1.336,6.583c-0.246,0.992 -1.85,3.484 -1.012,2.894c3.236,-2.278 5.711,-5.475 8.566,-8.212c-1.61,-8.615 -0.357,-18.068 -3.749,-26.338c-0.521,-1.271 -1.406,-2.362 -2.109,-3.543c-1.105,-0.524 -2.098,-1.454 -3.317,-1.572c-1.361,-0.132 -2.807,0.214 -4.009,0.863c-7.93,4.284 -17.031,8.594 -17.859,18.607c-0.17,2.057 0.46,4.102 0.69,6.153c0.727,1.862 1.15,3.873 2.181,5.587c3.188,5.301 10.188,9.776 16.577,9.212c0.925,-0.082 1.769,-0.563 2.654,-0.844c3.492,-2.594 7.568,-4.552 10.476,-7.782c0.694,-0.771 -0.304,-2.082 -0.761,-3.011c-1.702,-3.457 -5.565,-6.071 -9.414,-6.428c-1.363,-0.126 -2.722,0.292 -4.082,0.439c-2.531,1.447 -17.524,3.697 -15.36,11.137c0.327,1.123 6.729,4.521 8.387,3.678c4.045,-2.056 3.47,-4.092 7.325,-6.482c0.974,-2.513 1.158,-5.084 0.796,-7.732c-0.07,-0.515 0.104,-1.817 -0.327,-1.525c-11.505,7.805 -11.691,5.124 -7.647,11.57c5.137,6.411 5.661,7.006 14.629,-4.095c1.402,-1.736 -8.403,-6.708 -9.368,-7.18c-9.113,-2.978 -12.171,-2.261 -19.604,7.81c-0.909,1.23 3.044,2.712 5.809,3.956c7.934,1.142 11.972,-1.738 18.603,-8.703c1.598,-1.678 -5.188,-5.2 -6.083,-5.578c-6.467,1.056 -6.317,0.734 -14.188,10.337c-1.218,1.487 6.404,5.954 8.506,4.996c5.339,-2.435 10.119,-5.937 15.179,-8.905c-0.19,-1.291 -0.09,-2.659 -0.568,-3.874c-1.534,-3.893 -5.523,-7.201 -9.489,-8.395c-0.88,-0.265 -1.956,-0.684 -2.749,-0.222c-4.821,2.811 -8.839,6.706 -13.373,9.956c2.88,6.904 8.038,7.2 14.535,8.864l8.547,-5.804c-1.127,-0.41 -2.391,-0.555 -3.382,-1.229c-2.357,-1.602 -5.122,-5.917 -6.065,-8.618c-18.44,10.684 -12.985,4.365 -9.527,4.815c3.565,0.463 7.153,4.003 8.326,7.445c0.28,0.821 -0.044,1.734 -0.066,2.601c3.598,-1.773 7.461,-3.09 10.794,-5.318c0.809,-0.541 -1.977,0.28 -2.925,0.055c-0.977,-0.231 -1.894,-0.75 -2.675,-1.38c-0.658,-0.531 -0.723,-2.255 -1.536,-2.017c-8.032,2.35 -17.254,9.662 -11.324,5.065c2.78,-0.158 2.463,-0.619 4.809,1.311c0.453,0.374 0.543,1.544 1.106,1.371c3.683,-1.13 7.036,-3.143 10.452,-4.918c0.814,-0.422 -1.707,0.73 -2.616,0.849c-1.036,0.135 -2.088,-0.066 -3.133,-0.098c-1.012,-0.42 -2.106,-0.686 -3.038,-1.261c-0.744,-0.459 -1.07,-2.038 -1.91,-1.793c-4.173,1.216 -7.724,3.988 -11.693,5.757c-0.586,0.262 0.871,-1.057 1.494,-1.211c2.227,-0.549 5.241,0.561 7.238,1.075c2.87,1.303 4.737,1.841 7.04,4.015c0.655,0.618 0.689,2.348 1.578,2.19c21.898,-3.903 13.091,-2.235 9.803,-5.641c-0.778,-0.806 -1.386,-1.758 -2.079,-2.638c-3.966,-6.257 -1.568,-4.696 -13.899,0.528c-0.399,0.169 0.367,0.791 0.452,1.214c0.476,2.386 0.093,4.653 -1.147,6.749c2.823,-1.403 5.613,-2.873 8.469,-4.208c0.439,-0.205 -0.737,0.939 -1.206,0.812c-1.304,-0.352 -1.054,-2.931 -0.811,-3.549c0.352,-0.896 2.591,-2.568 1.642,-2.381c-2.486,0.489 -4.531,2.264 -6.796,3.396c4.508,-1.087 7.097,-1.597 10.884,1.848c0.787,0.716 1.457,1.595 1.9,2.559c0.336,0.73 -0.426,2.497 0.373,2.38c3.036,-0.444 5.624,-2.446 8.436,-3.669c-0.796,0.415 -1.508,1.063 -2.388,1.244c-5.905,1.218 -12.963,-3.292 -15.887,-8.124c-0.985,-1.627 -1.368,-3.547 -2.052,-5.32c-0.482,-5.406 -1.31,-6.081 1.26,-11.1c0.799,-1.561 4.586,-3.24 3.134,-4.228c-1.73,-1.177 -3.873,1.595 -5.801,2.413c-2.069,0.879 7.864,-4.125 6.721,-0.61c0.702,1.069 1.583,2.041 2.107,3.207c3.644,8.123 2.265,17.645 3.882,26.186c3.367,-0.393 6.928,0.005 10.102,-1.179c0.914,-0.341 0.482,-1.884 0.654,-2.84c0.385,-2.146 0.703,-4.303 1.017,-6.46c1.996,-13.75 3.648,-27.548 5.495,-41.318c3.123,-26.59 6.013,-53.241 7.249,-79.994l-9.354,4.773l-0,0.001Z" style="fill:#0b3e1f;fill-rule:nonzero;"/><path id="path114" d="M706.059,87.093c2.589,15.94 9.745,29.129 19.143,42.034c1.341,1.607 2.662,3.231 4.024,4.82c1.595,1.863 3.315,3.618 4.874,5.511c0.221,0.268 0.294,1.046 0.588,0.86c12.568,-7.946 13.992,-5.366 8.222,-10.161c-8.969,-8.386 -15.034,-19.023 -21.112,-29.516l-10.182,5.715c1.567,4.653 2.165,7.078 4.624,11.5c3.985,7.166 9.626,13.386 15.022,19.494c5.721,5.477 2.392,3.77 15.425,-4.123c0.34,-0.206 -0.486,-0.628 -0.755,-0.919c-4.795,-5.193 1.35,1.789 -5.064,-5.336c-1.385,-1.539 -2.726,-3.116 -4.089,-4.675c-9.306,-12.282 -17.034,-25.577 -20.108,-40.844l-10.612,5.64Z" style="fill:#0b3e1f;fill-rule:nonzero;"/><path id="path116" d="M832.275,91.363c-2.117,29.577 -4.384,59.133 -7.818,88.589c-1.591,17.265 -0.458,9.322 -3.074,23.875l8.63,-4.178c2.989,-15.03 1.354,-6.748 4.888,-24.848c3.268,-29.557 5.699,-59.19 8.191,-88.82l-10.817,5.382Z" style="fill:#0b3e1f;fill-rule:nonzero;"/><path id="path118" d="M824.834,191.192c-1.234,-0.063 -2.487,-0.413 -3.701,-0.188c-1.449,0.268 -2.841,0.882 -4.106,1.634c-3.011,1.791 -18.207,7.565 -16.009,15.744c0.23,0.857 0.914,1.524 1.37,2.285c0.779,0.362 1.489,0.949 2.337,1.086c0.881,0.142 1.875,0.137 2.661,-0.281c4.828,-2.571 9.729,-5.148 13.983,-8.579c2.335,-1.884 0.932,-9.163 0.456,-11.522c-0.841,-1.022 -1.522,-2.198 -2.522,-3.066c-7.178,-6.23 -15.199,1.141 -21.601,5.701c-2.203,1.569 -2.043,6.242 -2.217,8.291c0.69,3.014 0.875,5.961 3.265,8.295c6.99,6.825 19.924,-4.312 23.879,-6.961c1.239,-0.83 1.779,-2.386 2.668,-3.579c0.858,-2.741 2.096,-5.143 1.161,-8.124c-1.305,-4.162 -5.951,-6.389 -10.094,-5.682c-1.391,0.237 -2.608,1.076 -3.912,1.614c-5.794,3.504 -19.592,8.649 -16.957,18.66c0.338,1.286 0.968,2.574 1.933,3.492c2.49,2.369 4.58,1.811 7.63,1.842c7.662,-2.911 8.762,-3.029 18.147,-10.864c0.624,-0.521 -0.154,-1.616 -0.231,-2.424l-9.047,4.09c-1.015,1.124 -4.531,3.676 -3.044,3.373c1.096,-0.224 15.613,-7.998 6.197,-2.979c-1.185,0.161 -2.363,0.579 -3.556,0.484c-2.546,-0.202 -4.027,-1.239 -4.63,-3.798c-1.709,-7.244 10.241,-11.475 -7.891,-2.735c1.251,-0.773 2.365,-1.829 3.753,-2.319c1.267,-0.447 2.673,-0.559 4.01,-0.419c6.479,0.678 6.11,6.789 3.754,11.204c-0.963,1.049 -4.279,3.471 -2.889,3.147c3.074,-0.718 5.943,-2.408 8.363,-4.426c0.991,-0.825 -2.534,0.754 -3.82,0.64c-4.675,-0.416 -5.551,-5.01 -6.165,-8.713c0.188,-1.34 0.108,-2.746 0.563,-4.022c0.402,-1.125 3.117,-3.277 1.947,-3.013c-3.271,0.738 -6.342,2.482 -8.942,4.592c-0.846,0.687 2.214,-0.245 3.277,0.005c2.845,0.673 3.401,1.921 5.202,3.943c0.495,2.757 1.106,4.403 0.33,7.228c-0.305,1.112 -2.689,3.327 -1.554,3.095c3.43,-0.7 6.298,-3.049 9.385,-4.694c0.689,-0.368 -1.409,0.744 -2.183,0.856c-0.614,0.088 -1.226,-0.184 -1.84,-0.277c-0.885,-1.338 -1.765,-2.058 -1.175,-3.902c0.341,-1.066 2.86,-2.968 1.74,-2.875c-2.738,0.228 -4.903,2.531 -7.523,3.355c-2.629,0.828 8.716,-5.017 7.808,-2.718l9.789,-6.497l0.001,0.001Z" style="fill:#0b3e1f;fill-rule:nonzero;"/><path id="path120" d="M822.328,195.444c-1.75,-7.832 -5.571,-11.819 -12.649,-15.21c-11.578,-4.169 -14.774,0.353 -26.242,6.934c-4.68,4.027 -5.385,8.983 -3.746,14.652c2.978,6.872 7.413,11.175 14.395,13.824c4.542,0.931 9.357,0.597 13.428,-1.822c15.291,-9.084 11.499,-5.071 17.435,-12.348c2.121,-3.429 1.799,-1.717 1.637,-4.964l-9.585,4.349c-3.337,4.036 -1.74,2.047 -4.8,5.961c-5.182,5.352 -3.604,3.108 6.372,-1.788c1.03,-0.506 -1.978,1.181 -3.037,1.624c-1.949,0.814 -4.353,1.313 -6.464,1.365c-1.114,0.028 -2.223,-0.156 -3.334,-0.234c-6.904,-2.079 -11.127,-5.843 -13.963,-12.513c-1.415,-5.286 -0.293,-9.642 4.285,-12.993c-3.144,1.715 -6.356,3.309 -9.43,5.144c-0.7,0.419 1.497,-0.664 2.285,-0.877c3.395,-0.916 6.993,-0.377 10.289,0.618c6.892,2.773 11.174,6.188 12.973,13.691l10.151,-5.413l0,0Z" style="fill:#0b3e1f;fill-rule:nonzero;"/><path id="path122" d="M835.963,87.924c-0.616,12.016 4.284,19.6 12.135,28.165c4.011,3.8 8.558,6.927 13.15,9.97c0.968,0.641 1.797,1.587 2.914,1.908c1.667,0.48 3.495,-0.035 5.198,0.298l6.578,-4.183c-0.121,-0.309 -0.338,-0.596 -0.363,-0.927c-0.065,-0.843 0.549,-1.82 0.095,-2.535c-0.622,-0.979 -1.942,-1.276 -2.919,-1.906c-4.554,-2.937 -9.108,-5.887 -13.05,-9.644c-6.909,-7.296 -13.204,-15.809 -13.778,-26.199l-9.96,5.053l0,-0Z" style="fill:#0b3e1f;fill-rule:nonzero;"/><path id="path261" d="M784.44,228.553c-2.148,1.561 -5.939,4.493 -8.255,5.183c-1.226,0.366 4.321,-2.521 3.058,-2.31c-2.783,0.464 -5.198,2.203 -7.868,3.113c-8.77,2.99 -9.652,2.732 -19.045,4.319c-9.76,1.114 -19.629,1.1 -29.336,-0.504c-6.414,-1.06 -12.558,-3.254 -18.809,-4.958c-1.221,-0.595 -2.442,-1.19 -3.663,-1.784l-9.261,6.005c1.12,0.708 2.241,1.416 3.361,2.124c1.324,0.836 2.539,1.875 3.971,2.509c12.722,5.637 30.46,5.002 43.951,3.943c3.507,-0.609 7.052,-1.03 10.52,-1.827c15.178,-3.49 29.246,-11.119 41.867,-20.003l-10.491,4.189l-0,0.001Z" style="fill:#0b3e1f;fill-rule:nonzero;"/><path id="path40665" d="M679.724,183.796c0.299,-0.181 0.627,-0.32 0.896,-0.542c0.14,-0.115 -0.331,0.15 -0.5,0.215c-0.206,0.079 -0.417,0.15 -0.628,0.216c-0.807,0.252 -1.634,0.447 -2.449,0.669c-1.594,0.472 -3.127,1.123 -4.595,1.896c-2.294,1.23 -3.192,1.848 -3.943,4.231c-0.085,1.048 -0.022,0.516 -0.192,1.597l1.286,-0.62c0.289,-1.17 0.105,-0.585 0.562,-1.75c0.329,-0.905 0.692,-1.743 1.386,-2.437c0.154,-0.154 0.705,-0.472 0.493,-0.426c-0.371,0.081 -0.67,0.359 -1.005,0.538c1.473,-0.803 3.019,-1.478 4.625,-1.972c1.92,-0.524 3.798,-0.935 5.444,-2.146l-1.379,0.531l-0.001,-0Z" style="fill:#0b3e1f;fill-rule:nonzero;"/><path id="path40667" d="M673.938,187.276c-1.501,0.965 -2.718,2.248 -3.859,3.6c-1.045,1.377 -2.179,2.746 -2.814,4.373c-0.134,0.344 -0.229,0.702 -0.343,1.054c-0.469,1.963 -0.166,3.999 0.699,5.817c0.202,0.427 0.458,0.827 0.687,1.24c1.593,2.494 3.673,4.624 5.78,6.688c0.158,0.152 1.028,0.947 1.202,1.241c0.045,0.079 -0.065,0.319 0.017,0.276c0.635,-0.329 1.242,-0.729 1.775,-1.207c0.118,-0.105 -0.317,0.062 -0.475,0.045c-0.263,-0.033 -0.512,-0.132 -0.769,-0.198c-2.045,-0.918 -3.946,-2.27 -5.574,-3.808c-0.369,-0.349 -0.699,-0.737 -1.049,-1.105c-1.399,-1.815 -2.277,-4.142 -1.753,-6.451c0.075,-0.334 0.231,-0.643 0.346,-0.965c0.322,-0.549 0.426,-0.841 0.895,-1.255c0.138,-0.122 0.622,-0.394 0.463,-0.301c-2.912,1.712 -2.029,1.038 -1.192,0.89c0.422,-0.068 -0.411,0.637 -0.729,0.934c-1.799,1.869 -2.164,3.642 -1.644,6.182c0.119,0.582 0.326,1.143 0.489,1.714c0.843,2.065 2.032,4.001 3.759,5.453c0.842,0.708 1.771,1.263 2.694,1.855c0.969,0.614 1.983,1.155 2.974,1.732c0.123,0.071 0.247,0.307 0.363,0.225c2.232,-1.579 1.964,-1.395 0.673,-1.79c-2.102,-0.683 -4.038,-1.791 -5.615,-3.346c-0.382,-0.376 -0.721,-0.793 -1.082,-1.189c-1.597,-2.248 -3.357,-4.877 -3.207,-7.774c0.028,-0.535 0.193,-1.053 0.29,-1.58c0.73,-2.198 1.851,-4.312 3.517,-5.949c0.982,-0.698 0.71,-0.488 -1.607,0.898c-0.045,0.027 0.113,-0.028 0.147,-0.069c0.06,-0.072 -0.202,-0.078 -0.281,-0.028c-0.126,0.078 -0.209,0.208 -0.314,0.313c-1.849,1.423 -3.157,2.892 -4.459,4.825c-1.128,1.807 -1.702,3.868 -1.269,5.991c0.091,0.445 0.256,0.872 0.384,1.308c1.224,2.683 3.308,4.349 5.72,5.913c2.252,1.331 4.654,2.387 7.033,3.468c0.553,0.257 0.757,0.345 1.265,0.602c1.116,0.564 0.422,0.791 2.523,-1.364c0.114,-0.116 -0.32,-0.072 -0.48,-0.108c-2.334,-0.416 -4.433,-1.421 -6.449,-2.624c-2.215,-1.417 -4.211,-3.137 -6.073,-4.983c-1.101,-1.128 -0.84,-1.479 -2.864,1.011c-0.131,0.162 0.317,0.269 0.482,0.396c0.232,0.179 0.472,0.347 0.709,0.521c2.336,1.667 4.869,3.009 7.45,4.253c1.901,0.806 3.713,1.91 5.703,2.503c0.736,-0.547 1.615,-0.942 2.209,-1.64c0.139,-0.164 -0.389,-0.185 -0.587,-0.269c-0.97,-0.414 -1.977,-0.748 -2.976,-1.085c-1.252,-0.347 -1.621,-0.281 -2.788,1.648c-0.159,0.262 0.548,0.286 0.843,0.371c0.766,0.222 1.952,0.331 2.729,0.425c1.136,0.128 2.28,0.161 3.42,0.24c0.467,0.034 0.924,0.059 1.37,0.205c-0.895,-0.415 0.282,0.16 2.079,-1.559c0.16,-0.152 -0.436,0.07 -0.657,0.082c-1.227,0.072 -2.336,-0.194 -3.52,-0.482c-2.002,-0.584 -3.897,-1.481 -5.627,-2.641c-0.474,-0.318 -2.296,-1.685 -2.756,-2.029c-1.7,-1.165 -0.961,-0.529 -2.254,-1.864l-1.392,0.838c1.139,1.4 0.589,0.648 1.633,2.27c0.374,0.397 0.722,0.823 1.124,1.192c1.966,1.804 4.477,2.963 6.983,3.803c0.945,0.258 1.583,0.471 2.547,0.595c1.181,0.153 5.114,-0.068 4.335,-1.887c-0.497,-0.174 -0.988,-0.185 -1.515,-0.206c-1.159,-0.05 -2.321,-0.056 -3.477,-0.173c-1.189,-0.144 -1.5,-0.15 -2.643,-0.406c-0.273,-0.061 -0.543,-0.316 -0.806,-0.224c-0.9,0.314 -1.664,0.93 -2.504,1.38c-0.187,0.1 1.171,-0.861 0.634,-0.057c1.008,0.286 1.997,0.614 2.95,1.055c0.159,0.073 0.306,0.299 0.468,0.235c0.875,-0.349 1.635,-0.932 2.453,-1.398c-0.64,-0.057 -1.229,-0.304 -1.824,-0.535c-1.373,-0.535 -2.717,-1.139 -4.048,-1.768c-2.524,-1.259 -5.019,-2.604 -7.277,-4.302c-0.22,-0.178 -0.446,-0.348 -0.659,-0.532c-0.142,-0.122 -0.23,-0.445 -0.408,-0.386c-0.903,0.296 -1.665,0.916 -2.513,1.345c-0.028,0.012 -0.005,-0.094 0.022,-0.084c0.274,0.104 0.4,0.477 0.674,0.56c1.996,1.749 4.031,3.457 6.235,4.944c1.977,1.231 4.04,2.263 6.325,2.795c1.336,0.434 0.444,0.265 2.931,-1.353c0.039,-0.022 -0.081,-0.033 -0.122,-0.049c-0.515,-0.217 -0.275,-0.117 -0.917,-0.386c-0.257,-0.107 -0.515,-0.214 -0.772,-0.322c-2.41,-1.01 -4.803,-2.076 -7.057,-3.403c-2.35,-1.465 -4.539,-3.114 -5.682,-5.725c-0.121,-0.423 -0.28,-0.837 -0.363,-1.269c-0.397,-2.069 0.212,-4.066 1.307,-5.818c0.673,-0.979 0.815,-1.255 1.621,-2.147c0.908,-1.004 1.993,-1.8 3,-2.697c0.101,-0.107 0.79,-0.753 0.305,-0.923c-0.064,-0.023 -0.14,0.005 -0.199,0.038c-0.857,0.475 -1.706,0.963 -2.54,1.477c-0.129,0.079 -0.228,0.199 -0.343,0.298c-1.549,1.712 -2.616,3.815 -3.288,6.01c-0.087,0.545 -0.246,1.083 -0.26,1.635c-0.069,2.839 1.779,5.656 3.37,7.858c0.875,0.949 1.257,1.433 2.252,2.245c1.32,1.075 2.855,1.835 4.439,2.437c1.544,0.557 1.025,0.577 3.396,-0.919c0.133,-0.084 -0.297,-0.103 -0.441,-0.167c-1.067,-0.471 -2.08,-1.055 -3.089,-1.633c-1.028,-0.651 -1.72,-1.041 -2.658,-1.827c-1.701,-1.425 -2.938,-3.269 -3.751,-5.32c-0.153,-0.563 -0.352,-1.116 -0.46,-1.69c-0.482,-2.557 0.028,-4.274 1.888,-6.063c0.278,-0.265 1.373,-1.208 0.516,-1.508c-1.246,0.102 -3.172,1.213 -3.874,2.365c-0.148,0.243 -0.255,0.508 -0.383,0.762c-0.098,0.332 -0.236,0.655 -0.295,0.996c-0.409,2.368 0.485,4.729 1.923,6.577c1.92,1.995 4.098,3.813 6.58,5.077c0.215,0.08 1.102,0.454 1.271,0.371c3.11,-1.541 2.595,-1.421 0.856,-3.028c-2.142,-2.006 -4.232,-4.102 -5.79,-6.606c-1.204,-2.066 -2.253,-4.294 -1.653,-6.732c0.234,-0.831 0.277,-1.14 0.664,-1.906c0.614,-1.216 1.52,-2.27 2.317,-3.365c1.075,-1.274 2.242,-2.477 3.602,-3.455l-1.24,0.487l-0.001,-0.005Z" style="fill:#0b3e1f;fill-rule:nonzero;"/><path id="path40669" d="M681.285,213.649c-2.694,-0.621 -5.203,-1.8 -7.638,-3.072c-2.016,-1.182 -4.202,-2.442 -5.501,-4.456c-0.196,-0.304 -0.331,-0.643 -0.497,-0.965c-0.068,-0.331 -0.176,-0.657 -0.206,-0.994c-0.16,-1.824 0.808,-3.652 1.545,-5.252c0.988,-1.877 2.063,-3.697 2.874,-5.66c-0.493,0.442 0.509,-0.834 0.275,-0.724c-0.907,0.426 -1.804,0.888 -2.634,1.447c-0.258,0.173 -1.322,2.272 -1.454,2.528c-0.939,2.199 -1.706,4.582 -1.621,7.003c0.016,0.468 0.099,0.93 0.149,1.396c0.448,2.282 2.008,3.731 3.423,5.428c0.297,0.974 0.14,0.62 2.249,-1.4c0.107,-0.102 -0.276,-0.11 -0.405,-0.18c-0.207,-0.112 -0.408,-0.235 -0.603,-0.365c-0.76,-0.503 -0.881,-0.64 -1.623,-1.255c-0.3,-0.301 -0.631,-0.574 -0.901,-0.902c-1.199,-1.46 -2.012,-3.387 -1.982,-5.291c0.011,-0.521 0.127,-1.036 0.19,-1.553c0.137,-0.484 0.229,-0.982 0.41,-1.452c0.83,-2.158 2.73,-4.35 4.181,-6.149c0.633,-0.75 1.251,-1.514 1.907,-2.245c0.104,-0.116 0.208,-0.233 0.321,-0.341c0.039,-0.037 0.182,-0.116 0.133,-0.093c-0.943,0.444 -1.879,0.903 -2.819,1.354c-0.879,1.435 -1.93,2.767 -2.758,4.233c-0.677,1.2 -0.937,1.893 -1.48,3.15c-0.609,1.884 -0.948,3.911 -0.452,5.867c0.23,0.909 0.512,1.356 0.93,2.177c0.397,0.76 0.979,1.403 1.415,2.138c0.06,0.101 0.139,0.201 0.149,0.317c0.003,0.039 -0.153,0.034 -0.12,0.011c0.745,-0.521 1.512,-1.01 2.268,-1.515c-1.329,-0.557 -2.523,-1.506 -3.345,-2.693c-0.217,-0.315 -0.386,-0.66 -0.58,-0.99c-0.346,-1.086 -0.605,-1.564 -0.512,-2.764c0.191,-2.458 1.721,-4.931 2.878,-7.044c1.364,-2.425 2.896,-4.778 4.863,-6.763c-0.805,0.33 0.765,-0.547 0.549,-0.45c-0.959,0.429 -1.945,0.81 -2.864,1.32c-0.158,0.087 -0.206,0.295 -0.311,0.441c-0.564,0.78 -0.592,0.8 -1.241,1.642c-1.34,1.743 -2.739,3.451 -3.664,5.461c-0.606,1.316 -0.669,1.711 -1.072,3.082c-0.636,2.682 -0.19,5.098 0.74,7.628c0.15,0.436 0.362,0.848 0.529,1.277c0.039,0.106 0.097,0.211 0.107,0.325c0.003,0.027 -0.095,0.05 -0.073,0.033c0.793,-0.595 1.775,-0.995 2.39,-1.772c0.163,-0.205 -0.342,-0.399 -0.513,-0.598c-1.257,-1.633 -1.977,-3.649 -1.92,-5.721c0.011,-0.494 0.107,-0.981 0.161,-1.471c0.632,-2.481 1.883,-4.935 3.448,-6.968c0.317,-0.411 0.678,-0.787 1.017,-1.18c1.367,-1.431 2.944,-2.638 4.395,-3.978c-0.089,-0.117 -0.132,-0.409 -0.267,-0.351c-2.556,1.097 -4.278,2.716 -6.029,4.749c-1.83,2.323 -3.607,4.91 -4.686,7.679c-0.207,0.53 -0.343,1.085 -0.514,1.627c-0.757,3.101 -0.266,5.204 1.248,7.928c0.517,0.753 0.369,0.571 0.88,1.206c0.089,0.11 0.188,0.21 0.27,0.325c0.016,0.022 -0.002,0.101 0.022,0.084c2.675,-1.9 3.218,-1.217 1.927,-2.22c-1.207,-1.134 -2.673,-2.332 -3.21,-3.967c-0.135,-0.412 -0.168,-0.851 -0.252,-1.277c-0.181,-3.427 1.034,-5.732 2.714,-8.588c1.501,-2.44 3.495,-4.529 5.499,-6.563c-0.05,-0.266 1.088,-0.763 1.205,-1.021c0.104,-0.229 -0.391,-0.364 -0.438,-0.342c-1.086,0.51 -2.078,1.197 -3.117,1.795c-1.83,1.474 -3.283,3.339 -4.655,5.226c-1.881,2.805 -2.804,6.073 -3.238,9.387c-0.011,0.461 -0.067,0.922 -0.034,1.382c0.12,1.587 0.853,3.535 2.259,4.439c0.347,0.223 0.76,0.323 1.14,0.484l1.503,-0.915c-0.099,-0.325 -0.153,-0.666 -0.298,-0.973c-0.33,-0.697 -0.897,-1.265 -1.246,-1.953c-0.602,-1.188 -0.783,-2.449 -0.677,-3.767c0.41,-3.339 1.309,-6.432 3.253,-9.23c1.418,-1.908 2.938,-3.803 4.89,-5.199c-0.757,0.423 -1.472,0.928 -2.27,1.269c-0.098,0.042 0.028,-0.21 0.039,-0.315c-0.017,-0.036 -0.005,-0.117 -0.044,-0.108c-0.259,0.064 -0.871,0.948 -1.081,1.005c-1.942,2.058 -3.907,4.134 -5.358,6.578c-0.576,0.982 -1.109,1.827 -1.577,2.865c-0.845,1.874 -1.18,3.889 -1.091,5.935c0.086,0.457 0.113,0.928 0.257,1.369c0.527,1.613 2.087,2.903 3.213,4.104c1.244,1.169 0.383,0.634 3.426,-0.995c0.039,-0.022 -0.064,-0.065 -0.096,-0.098c-0.267,-0.273 -0.459,-0.459 -0.71,-0.769c-0.173,-0.213 -0.33,-0.438 -0.494,-0.656c-1.578,-2.61 -1.992,-4.62 -1.272,-7.641c0.169,-0.528 0.306,-1.068 0.507,-1.585c1.091,-2.804 2.855,-5.325 4.768,-7.624c0.823,-0.907 1.638,-1.786 2.599,-2.551c0.196,-0.155 0.832,-0.547 0.609,-0.436c-2.499,1.245 -2.024,2.147 -2.477,0.898c-1.329,1.375 -2.926,2.483 -4.191,3.926c-0.331,0.402 -0.684,0.787 -0.995,1.205c-1.569,2.109 -2.809,4.538 -3.392,7.1c-0.045,0.503 -0.129,1.005 -0.136,1.51c-0.028,2.131 0.693,4.198 1.934,5.918c1.09,1.508 0.329,0.914 3.489,-0.538c0.05,-0.022 -0.034,-0.099 -0.056,-0.146c-0.134,-0.279 -0.316,-0.532 -0.424,-0.823c-0.11,-0.234 -0.214,-0.47 -0.321,-0.705c-0.978,-2.445 -1.421,-4.774 -0.793,-7.394c0.39,-1.321 0.464,-1.753 1.061,-3.017c0.948,-2.007 2.37,-3.724 3.751,-5.444c0.634,-0.785 0.785,-0.961 1.355,-1.703c0.128,-0.167 0.584,-0.55 0.378,-0.504c-2.136,0.477 -2.191,0.509 -3.142,1.474c-1.844,2.023 -3.3,4.352 -4.621,6.739c-1.202,2.22 -2.659,4.609 -2.839,7.195c-0.09,1.291 0.159,1.729 0.524,2.9c0.2,0.342 0.375,0.699 0.597,1.027c0.842,1.246 2.043,2.171 3.329,2.925c0.939,-0.461 1.91,-0.86 2.816,-1.381c0.094,-0.056 -0.076,-0.3 -0.245,-0.534c-0.493,-0.684 -1.038,-1.333 -1.457,-2.069c-0.432,-0.817 -0.677,-1.174 -0.92,-2.084c-0.506,-1.889 -0.207,-3.839 0.389,-5.666c0.606,-1.402 0.718,-1.777 1.498,-3.112c0.884,-1.513 1.968,-2.906 2.994,-4.323c-0.826,0.291 -1.661,0.561 -2.479,0.872c-0.039,0.015 -0.051,0.068 -0.077,0.1c-0.091,0.111 -0.186,0.22 -0.277,0.331c-0.608,0.731 -1.205,1.471 -1.804,2.21c-1.848,2.335 -3.884,4.685 -4.439,7.693c-0.056,0.534 -0.166,1.065 -0.167,1.602c-0.005,2.452 1.233,4.703 2.946,6.385c0.695,0.621 1.384,1.203 2.151,1.733c0.129,0.09 0.248,0.32 0.394,0.262c0.908,-0.364 1.738,-0.903 2.553,-1.442c0.058,-0.039 -0.091,-0.106 -0.137,-0.159c-1.554,-1.458 -2.964,-3.081 -3.479,-5.201c-0.056,-0.449 -0.141,-0.896 -0.162,-1.348c-0.108,-2.368 0.624,-4.718 1.576,-6.856c0.592,-1.087 0.504,-0.99 1.153,-1.951c0.136,-0.202 0.667,-0.606 0.424,-0.593c-2.161,0.117 -1.915,0.23 -2.268,1.34c-0.732,1.955 -1.837,3.723 -2.757,5.592c-0.75,1.655 -1.728,3.518 -1.498,5.401c0.044,0.354 0.17,0.693 0.256,1.04c0.183,0.328 0.337,0.673 0.55,0.982c1.378,2.003 3.611,3.255 5.649,4.477c2.484,1.271 5.075,2.345 7.782,3.053l1.715,-1.195l0.008,0.004Z" style="fill:#0b3e1f;fill-rule:nonzero;"/><path id="path40671" d="M810.41,197.595c0.073,0.498 0.2,0.92 0.466,1.345l1.36,-0.749c-0.064,-0.493 -0.153,-0.985 -0.141,-1.484l-1.685,0.888l-0,-0Z" style="fill:#0b3e1f;fill-rule:nonzero;"/><path id="path40673" d="M810.935,201.898c0.255,1.401 0.216,1.532 2.053,-0.078c0.057,-0.05 0.208,-1.109 0.212,-1.133c0.045,-0.171 0.06,-0.353 0.134,-0.514c0.044,-0.097 0.141,-0.162 0.211,-0.243c-0.569,0.376 -1.207,0.666 -1.709,1.127c-0.087,0.08 0.089,0.219 0.122,0.332c0.118,0.396 0.119,0.476 0.179,0.858c-0.056,-0.027 -0.211,-0.038 -0.164,-0.076c0.634,-0.5 1.468,-0.763 1.999,-1.371c0.142,-0.162 -0.185,-0.389 -0.302,-0.57c-0.38,-0.587 -0.522,-0.751 -1.197,-0.679c-0.763,0.557 -1.596,1.028 -2.289,1.669c-0.135,0.125 -0.06,0.361 -0.098,0.54c-0.017,0.086 -0.149,0.293 -0.069,0.255c0.758,-0.365 1.522,-0.746 2.178,-1.271c0.106,-0.085 -0.063,-0.264 -0.091,-0.397c-0.039,-0.192 -0.076,-0.386 -0.115,-0.578c-0.362,-1.757 -0.209,-1.805 -2.714,0.022c-0.138,0.1 -0.044,0.338 -0.058,0.507c-0.016,0.236 -0.022,0.473 -0.039,0.709c0.065,1.229 0.045,0.605 0.057,1.87l2.025,-1.025c0.033,-1.297 -0.002,-0.652 0.11,-1.935c0.028,-0.23 0.033,-0.464 0.08,-0.691c0.027,-0.14 0.286,-0.445 0.148,-0.404c-0.745,0.221 -1.408,0.658 -2.112,0.988c0.039,0.033 0.098,0.055 0.121,0.1c0.112,0.232 0.197,0.777 0.239,0.992c0.028,0.197 0.06,0.394 0.087,0.592c0.022,0.153 -0.095,0.497 0.056,0.461c0.805,-0.196 1.536,-0.629 2.262,-1.025c0.064,-0.034 0,-0.147 0.017,-0.219c0.212,-1.088 0.566,-0.672 -1.707,0.32c0.53,-0.326 0.707,-0.225 1.057,0.36c0.115,0.191 0.045,0.621 0.27,0.612c2.539,-0.102 2.509,0.057 2.361,-0.881c-0.039,-0.147 -0.353,-1.325 -0.553,-1.28c-1.937,0.437 -2.061,0.461 -2.241,1.7c-0.028,0.194 -0.05,0.388 -0.082,0.581c-0.028,0.151 -0.243,0.473 -0.091,0.449c0.536,-0.086 0.99,-0.445 1.483,-0.673c0.05,-0.022 -0.119,0.099 -0.154,0.058c-0.116,-0.138 -0.17,-0.685 -0.191,-0.833l-1.485,0.776l-0,-0.002Z" style="fill:#0b3e1f;fill-rule:nonzero;"/><path id="path40675" d="M810.638,200.71c0.636,-1.379 0.508,-2.959 1.159,-4.331c-0.529,0.394 -1.209,0.643 -1.586,1.183c-0.148,0.213 0.18,0.488 0.244,0.739c0.351,1.364 0.491,2.786 0.528,4.19c-0.017,0.075 -0.113,0.269 -0.05,0.226c0.731,-0.478 1.545,-0.893 2.099,-1.568c0.172,-0.209 -0.1,-0.532 -0.159,-0.796c-0.085,-0.383 -0.342,-1.475 -0.512,-1.856c-0.08,-0.18 -0.223,-0.325 -0.334,-0.488c-2.653,-0.262 -3.491,2.841 -4.101,4.714c-0.011,0.022 -0.062,0.078 -0.039,0.064c0.803,-0.539 1.709,-0.957 2.392,-1.64c0.218,-0.219 0.104,-0.609 0.158,-0.914c0.142,-0.798 0.338,-1.589 0.355,-2.401c-0.833,0.39 -1.735,0.659 -2.499,1.17c-0.205,0.138 -0.186,0.455 -0.271,0.687c-0.139,0.381 -0.58,1.634 -0.617,2.032c-0.023,0.231 0.075,0.459 0.113,0.688l1.124,-0.519c0.276,-0.379 0.602,-0.728 0.828,-1.139c0.355,-0.647 0.46,-1.407 0.79,-2.067c0.565,-1.129 1.394,-1.031 -1.69,0.29c0.109,0.769 -0.13,1.556 -0.299,2.303c-0.071,0.315 -0.547,0.884 -0.229,0.942c1.359,0.248 2.691,-1.147 2.114,-0.549c0.184,-0.731 0.411,-1.451 0.73,-2.136c0.125,-0.267 0.711,-0.754 0.416,-0.779c-0.51,-0.045 -2.434,1.146 -1.326,0.474c0.118,0.127 0.275,0.225 0.353,0.379c0.216,0.422 0.401,1.398 0.471,1.838c0.045,0.275 -0.185,0.812 0.094,0.83c2.538,0.167 2.423,-0.003 2.186,-0.871c-0.192,-1.386 -0.387,-2.769 -0.781,-4.116c-0.083,-0.284 0.006,-0.833 -0.291,-0.84c-0.73,-0.017 -1.364,0.521 -2.047,0.781c-0.346,1.357 -0.221,2.822 -0.789,4.131l1.465,-0.651l0.001,0Z" style="fill:#0b3e1f;fill-rule:nonzero;"/></g><path d="M245.495,449.207c-0,-22.602 -14.963,-44.659 -60.488,-49.833c35.338,-8.169 48.709,-26.958 48.709,-48.471c-0,-20.696 -12.098,-46.837 -81.181,-46.565c-25.787,-0 -36.929,1.089 -83.409,1.089l-0,0.545c10.187,16.883 12.734,26.142 12.734,48.743l-0,100.755c-0,22.33 -2.547,31.861 -12.734,48.744l-0,0.545l83.727,-0c66.218,-0 92.642,-24.508 92.642,-55.552Zm-127.024,-52.556l-0,-81.148c7.322,-1.634 16.236,-2.724 28.652,-2.724c32.154,0 50.3,14.161 50.3,39.758c0,20.695 -10.506,43.842 -42.023,44.114l-36.929,0Zm29.925,99.666c-12.097,-0 -22.285,-1.634 -29.925,-3.268l-0,-87.956l39.794,-0c32.473,-0 47.754,19.062 47.754,45.476c-0,27.231 -19.102,45.748 -57.623,45.748Z" style="fill:#0b3e1f;fill-rule:nonzero;"/><path d="M315.533,504.214c-10.506,-16.883 -12.734,-26.142 -12.734,-48.744l-0,-45.476l28.334,0l56.667,94.765l56.031,-0l-0,-1.907c-16.555,-7.08 -23.24,-13.071 -36.93,-35.945l-37.247,-62.359c31.199,-8.986 45.525,-28.048 45.525,-50.65c-0,-29.137 -22.922,-48.471 -80.544,-48.471l-81.181,0l-0,0.545c10.187,16.883 12.734,26.142 12.734,48.743l0,100.755c0,22.33 -2.547,31.861 -12.734,48.744l-0,0.545l62.079,-0l0,-0.545Zm12.098,-190.345c38.521,-0 49.663,16.066 49.663,40.302c0,24.508 -9.869,47.382 -49.663,47.382l-24.832,-0l-0,-87.412c12.416,-0.272 20.693,-0.272 24.832,-0.272Z" style="fill:#0b3e1f;fill-rule:nonzero;"/><path d="M498.27,504.759l-0,-0.545c-6.686,-8.986 -14.645,-27.231 -0.637,-59.364l6.049,-13.888l74.495,0l12.416,28.048c8.595,20.151 8.914,37.307 3.502,45.204l-0,0.545l63.671,-0l-0,-0.545c-11.143,-9.803 -18.783,-20.151 -28.97,-43.842l-68.765,-157.123l-10.188,-0l-67.81,154.127c-9.232,20.968 -14.962,33.222 -30.243,46.838l-0,0.545l46.48,-0Zm9.232,-82.238l33.746,-76.52l33.427,76.52l-67.173,-0Z" style="fill:#0b3e1f;fill-rule:nonzero;"/><path d="M792.749,309.239c-14.963,-4.629 -33.109,-7.897 -51.892,-7.897c-38.203,0 -73.54,14.433 -73.54,52.012c-0,35.128 33.745,48.471 65.899,62.359c26.424,11.165 50.619,23.419 50.619,49.288c-0,18.79 -13.371,35.401 -42.341,35.401c-29.608,-0 -54.121,-16.884 -77.679,-55.552l-4.457,1.362l6.367,52.011c21.011,6.808 44.251,10.62 65.581,10.62c45.207,0 83.409,-17.155 83.409,-58.002c0,-37.307 -32.79,-51.739 -63.989,-64.81c-28.334,-11.982 -55.394,-22.874 -55.394,-47.927c-0,-17.428 12.734,-28.32 34.382,-28.32c22.285,0 44.252,11.437 64.945,48.471l4.457,-1.361l-6.367,-47.655Z" style="fill:#0b3e1f;fill-rule:nonzero;"/><path d="M959.249,309.239c-14.963,-4.629 -33.109,-7.897 -51.892,-7.897c-38.203,0 -73.54,14.433 -73.54,52.012c-0,35.128 33.746,48.471 65.899,62.359c26.424,11.165 50.619,23.419 50.619,49.288c0,18.79 -13.371,35.401 -42.341,35.401c-29.607,-0 -54.121,-16.884 -77.679,-55.552l-4.457,1.362l6.367,52.011c21.012,6.808 44.251,10.62 65.581,10.62c45.207,0 83.41,-17.155 83.41,-58.002c-0,-37.307 -32.791,-51.739 -63.99,-64.81c-28.334,-11.982 -55.394,-22.874 -55.394,-47.927c0,-17.428 12.734,-28.32 34.383,-28.32c22.284,0 44.251,11.437 64.944,48.471l4.457,-1.361l-6.367,-47.655Z" style="fill:#0b3e1f;fill-rule:nonzero;"/></g></g></g></svg>