<?xml version="1.0" encoding="UTF-8" standalone="no"?><!DOCTYPE svg PUBLIC "-//W3C//DTD SVG 1.1//EN" "http://www.w3.org/Graphics/SVG/1.1/DTD/svg11.dtd"><svg width="100%" height="100%" viewBox="0 0 561 374" version="1.1" xmlns="http://www.w3.org/2000/svg" xmlns:xlink="http://www.w3.org/1999/xlink" xml:space="preserve" xmlns:serif="http://www.serif.com/" style="fill-rule:evenodd;clip-rule:evenodd;stroke-linejoin:round;stroke-miterlimit:2;"><path d="M123.369,232.675c3.493,-41.959 14.097,-86.465 21.583,-93.428c0.954,-0.608 3.47,-1.602 6.593,-2.373c6.506,-1.606 16.048,-2.099 17.522,3.87c0.174,0.703 0.174,1.82 -0.087,3.002c-1.997,15.396 -18.318,117.04 -12.335,141.27c1.3,5.268 3.382,6.989 5.464,6.475c15.551,-3.839 28.692,-72.49 31.721,-77.977c6.18,-42.876 25.749,-89.761 51.947,-94.102c8.462,-1.402 10.31,-5.008 18.773,-6.41c12.165,-2.016 22.781,4.658 27.216,31.422c3.252,19.626 -5.285,35.34 -11.128,41.074c-6.048,6.135 -13.127,10.974 -17.093,11.632c-1.852,0.306 -1.705,-0.451 -1.883,-1.522c-0.177,-1.07 1.145,-1.289 2.405,-5.165c1.201,-4.232 4.822,-28.297 1.57,-47.923c-0.828,-4.996 -2.154,-8.076 -4.798,-7.638c-9.256,1.534 -40.218,77.059 -32.886,121.308c2.542,15.344 12.807,23.176 20.741,21.861c38.417,-6.365 54.852,-82.207 58.447,-85.502c10.777,-41.731 35.5,-85.837 61.12,-87.715c9.625,-0.706 14.413,-5.047 20.028,-5.458c8.555,-0.628 17.554,12.132 18.586,26.2c1.984,27.056 -24.253,76.129 -67.296,79.285c-0.802,0.059 -1.604,0.117 -2.433,-0.184c-2.682,11.077 -4.08,21.334 -3.445,29.992c1.164,15.873 6.182,25.66 16.074,24.934c35.557,-2.607 59.728,-76.19 62.936,-76.426c2.941,-0.215 3.684,6.259 4.081,11.67c0.953,12.986 -34.344,92.463 -78.723,95.717c-17.375,1.274 -32.754,-20.456 -35.975,-48.206c-11.141,28.065 -31.434,62.118 -62.304,67.233c-19.451,3.223 -39.457,-11.093 -46.245,-47.996c-7.529,27.372 -20.636,60.761 -36.905,64.778c-12.209,3.014 -24.721,-12.918 -30.302,-31.429c-5.261,23.968 -14.017,47.75 -26.258,52.311c-11.806,4.399 -27.783,-3.931 -34.35,-21.556c-14.397,-38.64 -8.48,-103.376 -6.496,-118.012l-1.257,-0.304c-7.123,23.112 -18.97,74.233 -22.303,108.285c-3.207,33.619 -0.78,55.489 -6.055,57.454c-5.024,1.872 -19.865,-4.178 -24.538,-16.719c-5.936,-15.931 -8.473,-169.386 2.579,-173.504c3.768,-1.404 18.974,-2.052 22.511,7.439c3.157,8.474 3.962,36.738 4.853,42.968l0.377,0.245c2.248,-7.786 14.088,-63.535 27.904,-68.683c9.294,-3.463 24.509,0.518 26.782,6.619c3.41,9.152 2.542,16.037 2.435,26.499c0.145,10.368 -2.477,90.089 2.953,104.664c1.516,4.067 3.406,6.837 8.43,4.965c11.954,-4.454 16.967,-64.194 19.464,-74.94Zm263.695,-106.009c-0.291,-3.968 -2.053,-6.014 -5.262,-5.779c-9.357,0.686 -28.255,32.537 -39.295,65.262c20.671,-7.681 46.065,-38.92 44.557,-59.483Zm-198.904,-55.091c4.509,18.261 -4.255,35.327 -17.267,38.54c-12.232,3.02 -25.85,-6.285 -30.012,-23.141c-4.509,-18.26 4.255,-35.327 17.267,-38.54c12.232,-3.02 25.85,6.285 30.012,23.141Zm372.223,-38.696c-1.188,35.066 -23.577,62.537 -39.961,86.954c-16.408,25.14 -29.968,53.272 -45.865,79.153c-0.853,1.419 -4.556,7.808 -5.895,7.763c-2.68,-0.091 -10.862,-3.987 -10.703,-8.687c0.073,-2.169 4.253,-14.694 5.155,-17.559c9.297,-29 17.791,-58.028 23.654,-88.592c6.534,-34.523 21.659,-93.003 54.344,-91.895c13.931,0.472 19.847,15.873 19.271,32.863Zm-96.357,215.695c-0.625,18.437 -13.099,38.282 -27.566,37.791c-10.717,-0.363 -17.023,-12.158 -16.545,-26.256c0.625,-18.437 13.099,-38.282 27.566,-37.792c10.717,0.364 17.01,12.52 16.545,26.257Z" style="fill:#fefce8;"/></svg>