<?xml version="1.0" encoding="UTF-8" standalone="no"?><!DOCTYPE svg PUBLIC "-//W3C//DTD SVG 1.1//EN" "http://www.w3.org/Graphics/SVG/1.1/DTD/svg11.dtd"><svg width="100%" height="100%" viewBox="0 0 324 271" version="1.1" xmlns="http://www.w3.org/2000/svg" xmlns:xlink="http://www.w3.org/1999/xlink" xml:space="preserve" xmlns:serif="http://www.serif.com/" style="fill-rule:evenodd;clip-rule:evenodd;stroke-linejoin:round;stroke-miterlimit:2;"><path id="path285" d="M65.052,183.951c-0.055,-0.111 -0.108,-0.223 -0.16,-0.337c-0.129,-0.436 -0.294,-0.863 -0.385,-1.307c-0.224,-1.099 -0.178,-2.18 0.074,-3.219c-0.026,-1.896 0.318,-3.758 1.103,-5.498c0.428,-0.949 0.91,-1.736 1.43,-2.614c0.374,-0.806 0.808,-1.587 1.31,-2.335c1.371,-1.887 2.825,-3.752 4.654,-5.226c0.196,-0.113 0.39,-0.228 0.583,-0.346c3.383,-2.9 7.678,-5.066 11.676,-7.226c1.202,-0.649 2.649,-0.995 4.01,-0.864c1.218,0.118 2.211,1.049 3.317,1.573c0.702,1.181 1.588,2.272 2.108,3.543c0.392,0.955 0.722,1.925 1.001,2.908c0.905,-6.463 1.748,-12.934 2.602,-19.401c3.002,-26.329 5.614,-52.747 6.091,-79.261l9.354,-4.774c-0.017,0.368 -0.034,0.736 -0.052,1.103l4.737,-2.518c3.075,15.268 10.802,28.563 20.108,40.845c1.363,1.558 2.704,3.136 4.089,4.675c6.414,7.125 0.269,0.143 5.064,5.336c0.269,0.291 1.095,0.713 0.755,0.919c-0.199,0.121 -0.395,0.24 -0.587,0.358c-0.249,0.517 -1.262,1.035 -3.138,2.01c-5.812,3.889 -6.804,5.543 -8.349,4.751c-0.051,0.004 -0.095,-0.024 -0.135,-0.074c-0.736,-0.435 -1.627,-1.402 -3.215,-2.922c-5.396,-6.108 -11.038,-12.328 -15.022,-19.494c-2.459,-4.423 -3.057,-6.847 -4.624,-11.5l0.115,-0.065c-0.355,-0.82 -0.698,-1.645 -1.028,-2.476c-1.48,19.726 -3.66,39.403 -5.967,59.047c-1.846,13.77 -3.499,27.568 -5.495,41.318c-0.249,1.712 -0.501,3.425 -0.787,5.131c0.018,0.203 -0.008,0.394 -0.096,0.566c-0.044,0.254 -0.088,0.509 -0.134,0.763c-0.172,0.956 0.26,2.499 -0.654,2.84c-1.46,0.545 -3.003,0.755 -4.571,0.861c-0.767,0.509 -1.546,1.007 -2.319,1.509c-0.811,0.75 -1.655,1.458 -2.56,2.095c-0.269,0.189 -0.286,0.062 -0.178,-0.232c-0.066,0.048 -0.131,0.097 -0.197,0.145c-0.885,0.281 -1.729,0.762 -2.654,0.843c-2.767,0.245 -5.648,-0.456 -8.284,-1.759c-2.258,-0.537 -4.298,-1.56 -6.254,-2.778c-0.834,-0.562 -1.643,-1.156 -2.436,-1.772c-0.476,-0.323 -0.937,-0.654 -1.378,-1c-2.36,-1.042 -4.659,-2.167 -3.944,-3.136c0.188,-0.254 0.373,-0.503 0.556,-0.746c-0.013,-0.025 -0.026,-0.049 -0.039,-0.074c-0.063,0.029 -0.127,0.058 -0.19,0.086c-0.235,0.105 -0.142,-0.045 0.095,-0.271Zm12.43,-14.017c0.707,-0.476 1.428,-0.933 2.168,-1.365c0.794,-0.462 1.869,-0.043 2.749,0.222c1.699,0.511 3.403,1.411 4.916,2.578c-0.408,-2.126 -1,-4.203 -1.894,-6.196c-0.523,-1.166 -1.404,-2.138 -2.106,-3.207c0.249,-0.767 -0.029,-1.128 -0.595,-1.234c-0.092,0.995 -2.799,2.367 -3.46,3.658c-1.325,2.589 -1.747,4.022 -1.778,5.544Zm148.461,9.273c-4.757,5.866 -2.088,2.697 -16.594,11.315c-4.072,2.419 -8.887,2.753 -13.429,1.822c-6.982,-2.649 -11.417,-6.953 -14.395,-13.824c-1.639,-5.669 -0.933,-10.626 3.746,-14.652c11.468,-6.581 14.665,-11.103 26.242,-6.934c3.511,1.682 6.221,3.51 8.274,5.882c2.08,0.01 4.165,0.705 5.79,1.967c0.154,-1.857 0.371,-4.408 0.714,-8.131c3.434,-29.456 5.702,-59.012 7.818,-88.589l3.638,-1.81c0.005,-0.534 0.022,-1.077 0.05,-1.629l9.96,-5.053c0.574,10.389 6.87,18.903 13.778,26.199c3.942,3.757 8.496,6.707 13.051,9.644c0.976,0.63 2.296,0.927 2.918,1.906c0.454,0.714 -0.16,1.692 -0.095,2.535c0.026,0.331 0.243,0.618 0.364,0.927l-6.579,4.183c-1.703,-0.333 -3.531,0.182 -5.198,-0.298c-1.117,-0.322 -1.946,-1.267 -2.914,-1.908c-4.592,-3.044 -9.139,-6.17 -13.15,-9.97c-2.641,-2.881 -4.948,-5.652 -6.824,-8.517c-1.904,22.43 -3.899,44.851 -6.373,67.229c-3.533,18.099 -1.899,9.818 -4.888,24.848l-5.904,2.858Zm-20.118,-13.025c-1.425,-0.853 -3.02,-1.606 -4.786,-2.316c-2.143,-0.647 -4.412,-1.101 -6.671,-1.088c-1.523,2.649 -1.689,5.722 -0.759,9.196c1.044,2.455 2.276,4.516 3.76,6.244c0.118,-2.277 0.211,-6.118 2.167,-7.512c1.967,-1.401 4.088,-3.068 6.289,-4.524Zm4.856,7.482c0.142,-0.086 0.284,-0.172 0.426,-0.256c-0.098,-0.117 -0.193,-0.23 -0.285,-0.34c-0.055,0.194 -0.102,0.393 -0.141,0.596Zm-66.384,-158.919l-9.799,7.193c-14.096,2.644 -27.847,7.029 -40.752,13.29c-4.216,2.046 -8.292,4.368 -12.438,6.552c-4.841,4.223 -10.53,7.376 -15.441,11.507c-14.805,12.452 -30.223,28.789 -39.148,46.043c-3.392,6.558 -5.545,13.681 -8.318,20.521c-1.629,7.194 -3.801,14.287 -4.888,21.581c-3.313,22.242 -1.738,41.508 9.522,61.414c9.047,15.993 15.463,20.187 28.601,32.566c5.821,3.897 11.298,8.36 17.464,11.689c19.316,10.427 41.314,15.036 63.148,15.312c18.793,0.238 26.485,-1.873 44.899,-4.925c21.068,-4.789 41.916,-10.889 61.334,-20.501c6.374,-3.155 12.713,-6.466 18.588,-10.467c2.511,-1.71 4.134,-4.451 6.356,-6.52c4.921,-4.585 10.041,-8.954 15.061,-13.43c4.209,-4.915 8.853,-9.49 12.626,-14.743c14.489,-20.168 20.853,-45.767 20.248,-70.39c-0.141,-5.748 -1.132,-11.445 -1.698,-17.167c-4.007,-20.962 -11.615,-41.254 -27.941,-55.883c-10.465,-9.377 -18.743,-13.19 -30.859,-20.033c-5.649,-2.264 -11.2,-4.785 -16.946,-6.792c-10.14,-3.541 -23.742,-6.903 -34.239,-9.032c-11.272,-2.288 -22.713,-4.13 -34.229,-4.627c-5.196,-0.224 -10.401,0.125 -15.601,0.187c-16.718,2.114 -11.6,1.019 -27.521,4.734c-3.524,0.822 -7.096,1.491 -10.535,2.613c-3.61,1.177 -7.038,2.844 -10.557,4.266l6.199,-4.868c7.229,-3.088 18.604,-8.148 25.861,-10.309c9.849,-2.934 17.398,-3.295 27.596,-4.431c5.174,0.014 10.357,-0.248 15.523,0.042c11.245,0.632 23.139,2.628 34.132,4.905c11.092,2.298 23.603,5.409 34.285,9.252c5.753,2.07 11.303,4.661 16.954,6.991c11.88,6.801 20.853,11.13 31.191,20.313c16.66,14.798 24.209,35.351 28.292,56.638c0.597,5.779 1.634,11.53 1.791,17.338c0.468,17.403 -3.251,38.727 -10.342,54.649c-6.497,14.587 -11.984,19.361 -22.161,31.444c-5.039,4.527 -9.715,9.49 -15.118,13.579c-13.216,9.999 -31.586,22.18 -47.215,29.815c-19.491,9.523 -40.364,15.574 -61.495,20.224c-18.506,2.956 -26.233,5.024 -45.111,4.684c-22.005,-0.397 -44.293,-5.132 -63.718,-15.739c-6.201,-3.385 -11.68,-7.94 -17.52,-11.91c-5.296,-5.023 -11.084,-9.578 -15.889,-15.069c-9.47,-10.821 -17.816,-24.074 -21.691,-38.057c-5.851,-21.116 -1.497,-43.218 3.666,-63.845c2.737,-6.916 4.84,-14.115 8.211,-20.747c6.644,-13.069 14.619,-22.289 24.68,-32.752c16.123,-16.768 31.233,-27.152 52.057,-38.149c4.163,-2.158 8.253,-4.46 12.489,-6.473c12.729,-6.049 26.412,-10.525 40.396,-12.483Zm41.977,190.507l10.491,-4.189c-12.621,8.884 -26.688,16.513 -41.867,20.003c-3.468,0.797 -7.013,1.218 -10.52,1.827c-13.49,1.058 -31.229,1.694 -43.951,-3.943c-1.432,-0.634 -2.647,-1.673 -3.97,-2.51c-1.121,-0.707 -2.241,-1.415 -3.362,-2.123l9.261,-6.006l3.663,1.785c6.252,1.704 12.395,3.897 18.809,4.957c9.707,1.605 19.576,1.619 29.336,0.505c9.394,-1.587 10.276,-1.329 19.045,-4.319c2.67,-0.91 5.085,-2.649 7.869,-3.113c1.262,-0.211 -4.285,2.676 -3.059,2.31c2.316,-0.691 6.108,-3.623 8.255,-5.184Z" style="fill:#0b3e1f;"/></svg>