<?xml version="1.0" encoding="UTF-8" standalone="no"?><!DOCTYPE svg PUBLIC "-//W3C//DTD SVG 1.1//EN" "http://www.w3.org/Graphics/SVG/1.1/DTD/svg11.dtd"><svg width="100%" height="100%" viewBox="0 0 578 391" version="1.1" xmlns="http://www.w3.org/2000/svg" xmlns:xlink="http://www.w3.org/1999/xlink" xml:space="preserve" xmlns:serif="http://www.serif.com/" style="fill-rule:evenodd;clip-rule:evenodd;stroke-linejoin:round;stroke-miterlimit:2;"><path d="M131.703,241.008c3.492,-41.958 14.096,-86.465 21.582,-93.428c0.954,-0.608 3.47,-1.601 6.593,-2.373c6.506,-1.606 16.049,-2.099 17.523,3.871c0.173,0.702 0.173,1.82 -0.087,3.002c-1.998,15.396 -18.319,117.039 -12.336,141.27c1.301,5.267 3.382,6.989 5.464,6.474c15.551,-3.839 28.693,-72.49 31.721,-77.977c6.18,-42.876 25.749,-89.76 51.947,-94.101c8.463,-1.402 10.311,-5.008 18.773,-6.411c12.165,-2.015 22.781,4.659 27.216,31.422c3.252,19.626 -5.285,35.34 -11.128,41.074c-6.048,6.135 -13.126,10.975 -17.093,11.632c-1.851,0.307 -1.705,-0.451 -1.883,-1.521c-0.177,-1.071 1.145,-1.29 2.405,-5.165c1.201,-4.232 4.822,-28.297 1.57,-47.924c-0.828,-4.995 -2.153,-8.076 -4.798,-7.637c-9.256,1.533 -40.217,77.058 -32.886,121.307c2.543,15.344 12.807,23.176 20.741,21.862c38.418,-6.366 54.852,-82.207 58.447,-85.502c10.777,-41.732 35.5,-85.837 61.121,-87.716c9.624,-0.706 14.413,-5.046 20.027,-5.458c8.555,-0.627 17.554,12.132 18.586,26.201c1.984,27.055 -24.253,76.128 -67.296,79.284c-0.802,0.059 -1.604,0.118 -2.432,-0.184c-2.682,11.077 -4.08,21.335 -3.446,29.992c1.164,15.873 6.183,25.66 16.074,24.935c35.558,-2.608 59.728,-76.191 62.936,-76.426c2.941,-0.216 3.685,6.258 4.082,11.669c0.952,12.987 -34.344,92.463 -78.724,95.718c-17.375,1.274 -32.754,-20.457 -35.975,-48.206c-11.14,28.065 -31.433,62.118 -62.304,67.233c-19.451,3.223 -39.457,-11.094 -46.245,-47.997c-7.529,27.373 -20.636,60.762 -36.905,64.778c-12.209,3.015 -24.72,-12.918 -30.301,-31.429c-5.261,23.969 -14.018,47.75 -26.259,52.311c-11.806,4.399 -27.782,-3.93 -34.349,-21.556c-14.398,-38.639 -8.481,-103.376 -6.496,-118.012l-1.258,-0.303c-7.122,23.112 -18.97,74.232 -22.302,108.284c-3.208,33.619 -0.781,55.489 -6.056,57.455c-5.024,1.871 -19.865,-4.179 -24.538,-16.72c-5.935,-15.93 -8.473,-169.385 2.579,-173.504c3.768,-1.403 18.975,-2.051 22.511,7.439c3.157,8.474 3.962,36.738 4.853,42.968l0.377,0.246c2.249,-7.786 14.088,-63.536 27.904,-68.684c9.294,-3.463 24.509,0.519 26.782,6.62c3.41,9.151 2.543,16.036 2.436,26.498c0.144,10.368 -2.478,90.09 2.953,104.664c1.515,4.068 3.405,6.838 8.429,4.966c11.955,-4.455 16.967,-64.195 19.465,-74.941Zm263.695,-106.008c-0.291,-3.968 -2.054,-6.015 -5.262,-5.78c-9.357,0.686 -28.256,32.537 -39.295,65.263c20.67,-7.682 46.065,-38.921 44.557,-59.483Zm-198.904,-55.091c4.508,18.26 -4.255,35.327 -17.268,38.54c-12.232,3.02 -25.85,-6.285 -30.012,-23.141c-4.508,-18.261 4.255,-35.327 17.268,-38.54c12.232,-3.02 25.85,6.285 30.012,23.141Zm372.222,-38.697c-1.188,35.066 -23.576,62.537 -39.96,86.954c-16.409,25.14 -29.968,53.272 -45.866,79.154c-0.852,1.419 -4.556,7.808 -5.895,7.762c-2.679,-0.091 -10.862,-3.987 -10.703,-8.687c0.074,-2.169 4.253,-14.694 5.155,-17.559c9.297,-29 17.791,-58.028 23.655,-88.592c6.534,-34.523 21.658,-93.003 54.343,-91.895c13.932,0.472 19.847,15.873 19.271,32.863Zm-96.357,215.696c-0.625,18.436 -13.099,38.281 -27.566,37.791c-10.716,-0.363 -17.022,-12.158 -16.545,-26.257c0.625,-18.437 13.099,-38.281 27.566,-37.791c10.717,0.363 17.011,12.519 16.545,26.257Z" style="fill:#0b3e1f;"/><path d="M47.177,198.734c1.608,-4.691 3.338,-9.24 5.162,-13.308c2.509,-5.595 5.244,-10.358 8.023,-13.692c2.678,-3.213 5.57,-5.299 8.367,-6.341c8.525,-3.177 20.864,-1.726 28.514,2.264c4.653,2.427 7.718,5.85 8.986,9.254c3.788,10.167 3.083,17.799 2.961,29.392c0.088,7.508 -1.152,48.404 -0.059,77.29c0.32,8.464 0.732,15.803 1.542,20.604c0.915,-2.02 1.919,-4.46 2.566,-6.689c5.536,-19.095 8.453,-49.252 10.205,-57.735l0.001,-0.009c2.532,-29.915 8.602,-61.002 14.614,-79.445c3.15,-9.663 6.756,-16.241 9.551,-18.84c0.37,-0.345 0.77,-0.654 1.196,-0.926c1.322,-0.842 4.75,-2.368 9.075,-3.436c5.191,-1.282 11.845,-1.811 16.754,-0.49c5.61,1.509 9.512,5.01 10.856,10.453c0.372,1.507 0.533,3.863 0.048,6.369c-1.503,11.374 -9.768,63.58 -12.601,102.22c-0.914,12.465 -1.351,23.423 -0.644,30.788c1.246,-2.162 2.45,-4.678 3.629,-7.422c6.416,-14.93 11.688,-36.063 15.007,-48.679c1.222,-4.649 2.311,-8.319 3.109,-10.545c3.947,-26.676 12.918,-54.689 25.231,-73.91c9.415,-14.696 21.029,-24.314 33.478,-26.376c4.095,-0.679 6.234,-2.096 8.793,-3.287c2.696,-1.254 5.665,-2.409 9.98,-3.124c7.021,-1.163 13.651,-0.141 19.529,3.76c7.371,4.892 14.061,15.151 17.27,34.521c3.829,23.108 -6.56,41.518 -13.45,48.323c-7.54,7.636 -16.688,13.147 -21.63,13.966c-3.974,0.659 -6.116,-0.512 -7.457,-1.423c-2.003,-1.361 -3.44,-3.525 -4.009,-6.957c-0.308,-1.859 -0.092,-3.423 0.533,-5.003c0.254,-0.643 1.221,-1.284 2.118,-3.952c0.979,-3.672 3.411,-20.163 2.262,-36.051c-0.882,1.592 -1.752,3.267 -2.524,4.935c-11.263,24.325 -24.548,68.402 -19.655,97.928c0.921,5.559 3.083,9.832 5.891,12.522c1.703,1.631 3.523,2.769 5.266,2.481c7.757,-1.286 14.252,-6.319 19.905,-12.826c6.509,-7.492 11.828,-16.987 16.18,-26.364c7.383,-15.907 11.999,-31.579 14.466,-38.04c0.479,-1.255 0.982,-2.316 1.465,-3.19c6.816,-25.872 18.794,-52.444 32.927,-70.113c10.835,-13.546 23.21,-21.883 35.377,-22.775c4.707,-0.345 7.972,-1.841 10.838,-2.988c3.202,-1.281 6.122,-2.245 9.19,-2.47c5.646,-0.414 11.665,2.163 16.658,7.542c5.628,6.063 10.08,15.893 10.848,26.36c1.103,15.036 -5.344,36.289 -18.339,54.122c-12.402,17.02 -30.592,30.826 -52.971,33.711c-1.562,7.771 -2.325,14.973 -1.864,21.26c0.387,5.271 1.197,9.752 2.662,13.171c1.022,2.387 2.198,4.23 4.492,4.062c9.319,-0.684 17.339,-7.839 24.491,-16.554c12.624,-15.383 21.966,-36.313 27.152,-47.324c1.891,-4.016 3.38,-6.921 4.312,-8.27c0.844,-1.221 1.673,-1.995 2.29,-2.47c1.695,-1.304 3.346,-1.71 4.691,-1.808c3.97,-0.291 7.516,1.364 9.931,5.549c1.696,2.939 2.694,8.692 3.071,13.822c0.187,2.552 -0.456,7.109 -2.286,12.951c-3.418,10.912 -10.938,27.632 -21.403,43.712c-15.714,24.145 -38.271,46.181 -62.737,47.975c-9.265,0.679 -18.249,-3.213 -25.796,-10.899c-5.175,-5.27 -9.7,-12.437 -13.106,-20.877c-6.002,11.1 -13.335,21.876 -22.029,30.586c-10.314,10.332 -22.529,17.796 -36.594,20.127c-17.487,2.897 -36.285,-5.374 -47.691,-28.894c-3.479,9.187 -7.465,17.952 -11.861,25.146c-6.72,10.997 -14.776,18.377 -22.963,20.399c-7.343,1.813 -14.911,-0.421 -21.703,-6.15c-2.985,-2.517 -5.84,-5.769 -8.445,-9.542c-2.375,7.109 -5.089,13.651 -8.122,19.071c-4.936,8.822 -10.985,14.839 -17.378,17.221c-15.214,5.669 -36.606,-3.742 -45.068,-26.455c-5.019,-13.47 -7.677,-30.005 -8.916,-46.588c-2.221,12.212 -4.026,24.126 -5.037,34.449c-2.636,27.637 -1.744,47.534 -3.986,55.427c-1.515,5.334 -4.523,7.943 -7.454,9.034c-2.711,1.011 -7.032,1.239 -11.951,-0.246c-8.332,-2.516 -19.034,-9.909 -23.305,-21.372c-1.537,-4.125 -3.095,-16.768 -4.057,-33.706c-2.106,-37.055 -2.329,-95.895 1.083,-125.563c0.977,-8.495 2.384,-14.867 3.918,-18.274c1.802,-4.002 4.428,-5.895 6.534,-6.679c3.124,-1.165 11.943,-2.215 19.55,0.174c6.114,1.92 11.322,5.839 13.679,12.164c0.307,0.823 0.594,1.825 0.864,2.972Zm84.526,42.274c-2.498,10.746 -7.51,70.486 -19.465,74.941c-5.024,1.872 -6.914,-0.898 -8.429,-4.966c-5.431,-14.574 -2.809,-94.296 -2.953,-104.664c0.107,-10.462 0.974,-17.347 -2.436,-26.498c-2.273,-6.101 -17.488,-10.083 -26.782,-6.62c-13.816,5.148 -25.655,60.898 -27.904,68.684l-0.377,-0.246c-0.891,-6.23 -1.696,-34.494 -4.853,-42.968c-3.536,-9.49 -18.743,-8.842 -22.511,-7.439c-11.052,4.119 -8.514,157.574 -2.579,173.504c4.673,12.541 19.514,18.591 24.538,16.72c5.275,-1.966 2.848,-23.836 6.056,-57.455c3.332,-34.052 15.18,-85.172 22.302,-108.284l1.258,0.303c-1.985,14.636 -7.902,79.373 6.496,118.012c6.567,17.626 22.543,25.955 34.349,21.556c12.241,-4.561 20.998,-28.342 26.259,-52.311c5.581,18.511 18.092,34.444 30.301,31.429c16.269,-4.016 29.376,-37.405 36.905,-64.778c6.788,36.903 26.794,51.22 46.245,47.997c30.871,-5.115 51.164,-39.168 62.304,-67.233c3.221,27.749 18.6,49.48 35.975,48.206c44.38,-3.255 79.676,-82.731 78.724,-95.718c-0.397,-5.411 -1.141,-11.885 -4.082,-11.669c-3.208,0.235 -27.378,73.818 -62.936,76.426c-9.891,0.725 -14.91,-9.062 -16.074,-24.935c-0.634,-8.657 0.764,-18.915 3.446,-29.992c0.828,0.302 1.63,0.243 2.432,0.184c43.043,-3.156 69.28,-52.229 67.296,-79.284c-1.032,-14.069 -10.031,-26.828 -18.586,-26.201c-5.614,0.412 -10.403,4.752 -20.027,5.458c-25.621,1.879 -50.344,45.984 -61.121,87.716c-3.595,3.295 -20.029,79.136 -58.447,85.502c-7.934,1.314 -18.198,-6.518 -20.741,-21.862c-7.331,-44.249 23.63,-119.774 32.886,-121.307c2.645,-0.439 3.97,2.642 4.798,7.637c3.252,19.627 -0.369,43.692 -1.57,47.924c-1.26,3.875 -2.582,4.094 -2.405,5.165c0.178,1.07 0.032,1.828 1.883,1.521c3.967,-0.657 11.045,-5.497 17.093,-11.632c5.843,-5.734 14.38,-21.448 11.128,-41.074c-4.435,-26.763 -15.051,-33.437 -27.216,-31.422c-8.462,1.403 -10.31,5.009 -18.773,6.411c-26.198,4.341 -45.767,51.225 -51.947,94.101c-3.028,5.487 -16.17,74.138 -31.721,77.977c-2.082,0.515 -4.163,-1.207 -5.464,-6.474c-5.983,-24.231 10.338,-125.874 12.336,-141.27c0.26,-1.182 0.26,-2.3 0.087,-3.002c-1.474,-5.97 -11.017,-5.477 -17.523,-3.871c-3.123,0.772 -5.639,1.765 -6.593,2.373c-7.486,6.963 -18.09,51.47 -21.582,93.428Zm263.695,-106.008c1.508,20.562 -23.887,51.801 -44.557,59.483c11.039,-32.726 29.938,-64.577 39.295,-65.263c3.208,-0.235 4.971,1.812 5.262,5.78Zm-8.888,7.153c-1.348,1.619 -2.749,3.508 -4.191,5.615c-4.287,6.269 -8.81,14.35 -13.06,23.335c3.728,-4.003 7.155,-8.428 10.018,-12.951c3.4,-5.373 6.074,-10.879 7.233,-15.999Zm-181.926,-64.242c5.759,23.327 -6.738,44.524 -23.36,48.628c-16.017,3.955 -34.65,-7.162 -40.1,-29.234c-5.76,-23.326 6.738,-44.523 23.36,-48.628c16.017,-3.954 34.65,7.162 40.1,29.234Zm-8.09,1.998c-4.162,-16.856 -17.78,-26.161 -30.012,-23.141c-13.013,3.213 -21.776,20.279 -17.268,38.54c4.162,16.856 17.78,26.161 30.012,23.141c13.013,-3.213 21.776,-20.28 17.268,-38.54Zm380.551,-38.414c-1.244,36.712 -24.179,65.702 -41.339,91.27c-16.348,25.056 -29.855,53.091 -45.678,78.857c-0.852,1.417 -4.051,6.66 -6.101,8.705c-2.642,2.637 -5.51,3.142 -7.214,3.084c-2.618,-0.089 -8.623,-2.053 -12.824,-5.548c-3.87,-3.219 -6.069,-7.519 -5.925,-11.75c0.082,-2.434 4.522,-16.564 5.534,-19.779c0.004,-0.014 0.009,-0.028 0.013,-0.042c9.195,-28.68 17.606,-57.384 23.405,-87.61c4.078,-21.544 11.507,-52.007 24.031,-72.719c9.788,-16.188 22.841,-26.483 38.78,-25.943c10.174,0.345 17.583,5.899 22.182,14.711c3.728,7.145 5.477,16.703 5.136,26.764Zm-8.329,-0.283c0.576,-16.99 -5.339,-32.391 -19.271,-32.863c-32.685,-1.108 -47.809,57.372 -54.343,91.895c-5.864,30.564 -14.358,59.592 -23.655,88.592c-0.902,2.865 -5.081,15.39 -5.155,17.559c-0.159,4.7 8.024,8.596 10.703,8.687c1.339,0.046 5.043,-6.343 5.895,-7.762c15.898,-25.882 29.457,-54.014 45.866,-79.154c16.384,-24.417 38.772,-51.888 39.96,-86.954Zm-88.028,215.978c-0.442,13.046 -5.991,26.661 -13.984,35.365c-6.304,6.864 -14.119,10.746 -22.193,10.472c-14.733,-0.499 -25.248,-15.484 -24.591,-34.867c0.442,-13.047 5.99,-26.662 13.984,-35.365c6.304,-6.864 14.118,-10.746 22.193,-10.473c14.733,0.499 25.231,15.982 24.591,34.868Zm-8.329,-0.282c0.466,-13.738 -5.828,-25.894 -16.545,-26.257c-14.467,-0.49 -26.941,19.354 -27.566,37.791c-0.477,14.099 5.829,25.894 16.545,26.257c14.467,0.49 26.941,-19.355 27.566,-37.791Z" style="fill:#fefce8;"/></svg>