<?xml version="1.0" standalone="no"?>
<!DOCTYPE svg PUBLIC "-//W3C//DTD SVG 20010904//EN"
 "http://www.w3.org/TR/2001/REC-SVG-20010904/DTD/svg10.dtd">
<svg version="1.0" xmlns="http://www.w3.org/2000/svg"
 width="648.000000pt" height="648.000000pt" viewBox="0 0 648.000000 648.000000"
 preserveAspectRatio="xMidYMid meet">
<metadata>
Created by potrace 1.14, written by Peter Selinger 2001-2017
</metadata>
<g transform="translate(0.000000,648.000000) scale(0.100000,-0.100000)"
fill="#000000" stroke="none">
<path d="M3170 5947 c-3 -3 -36 -8 -75 -12 -38 -4 -85 -9 -104 -11 -62 -6
-244 -38 -276 -48 -5 -2 -12 -4 -15 -4 -12 -1 -157 -54 -172 -62 -10 -6 -22
-10 -28 -10 -5 0 -33 -10 -62 -23 -29 -13 -73 -32 -98 -42 -25 -10 -68 -28
-96 -41 -28 -13 -55 -24 -61 -24 -11 0 -143 -97 -143 -105 0 -3 26 7 58 21 31
14 64 28 72 31 8 3 24 9 35 13 16 8 69 23 120 36 39 10 155 36 180 40 17 3 64
14 105 24 41 10 95 21 120 24 25 4 56 8 70 10 14 2 57 7 95 11 39 4 79 9 90
11 10 2 98 4 195 5 165 0 224 -2 345 -17 28 -4 61 -8 75 -9 14 -2 44 -5 68 -9
23 -3 59 -8 80 -11 21 -3 49 -8 62 -10 14 -3 37 -7 51 -10 115 -21 177 -34
349 -75 160 -37 285 -71 395 -107 101 -32 326 -121 343 -135 6 -6 12 -8 12 -4
0 7 188 -91 312 -163 344 -201 559 -419 708 -719 85 -172 147 -351 185 -532 1
-8 8 -33 14 -55 5 -22 13 -65 17 -95 3 -30 7 -66 9 -80 26 -181 26 -489 0
-650 -21 -131 -23 -142 -46 -239 -41 -173 -125 -401 -195 -527 -34 -62 -96
-166 -106 -179 -5 -5 -28 -37 -52 -70 -50 -70 -235 -277 -280 -314 -17 -14
-36 -30 -42 -36 -6 -5 -44 -39 -84 -75 -40 -36 -122 -113 -181 -172 -59 -60
-113 -108 -120 -108 -7 0 -20 -6 -28 -14 -9 -8 -34 -24 -56 -37 -53 -30 -358
-186 -367 -188 -4 -1 -29 -11 -55 -22 -188 -81 -418 -161 -653 -228 -80 -22
-154 -42 -165 -44 -11 -2 -27 -7 -35 -10 -18 -7 -181 -44 -227 -52 -18 -3 -45
-7 -60 -10 -16 -2 -68 -11 -118 -20 -113 -20 -142 -25 -180 -30 -16 -2 -48 -6
-70 -9 -151 -22 -495 -27 -675 -12 -52 5 -109 10 -126 11 -17 2 -40 5 -50 9
-11 3 -41 8 -69 11 -27 4 -58 8 -67 11 -9 3 -27 7 -40 9 -13 3 -52 12 -88 21
-36 9 -72 18 -80 19 -8 2 -16 4 -17 5 -2 2 -6 3 -10 4 -130 31 -357 125 -518
216 -37 21 -184 119 -195 130 -3 3 -29 21 -58 41 -144 99 -434 389 -528 529
-62 91 -148 235 -149 250 -1 3 -13 29 -28 58 -15 28 -24 52 -21 52 4 0 2 6 -3
13 -14 18 -49 121 -72 213 -30 120 -39 177 -47 324 -4 58 -6 110 -6 115 2 53
13 216 16 240 2 17 7 55 11 85 3 30 11 77 16 105 6 27 12 61 15 75 3 14 11 48
19 76 8 28 17 62 19 75 3 13 5 26 6 29 1 3 3 10 4 15 9 45 64 212 76 230 4 6
10 23 14 38 12 52 90 222 144 317 67 117 194 296 262 371 8 9 41 46 73 82 89
101 243 253 353 347 71 62 87 74 194 149 58 41 116 84 130 96 14 13 54 39 90
58 120 64 260 136 260 132 0 -2 27 10 60 26 33 16 66 29 73 29 7 0 17 4 22 9
25 23 472 155 561 165 11 2 27 7 35 11 26 15 189 137 189 142 0 2 -4 2 -9 -1
-5 -3 -29 -8 -52 -11 -91 -11 -406 -96 -494 -134 -11 -5 -36 -15 -55 -22 -77
-28 -283 -127 -425 -204 -33 -18 -96 -52 -140 -75 -44 -24 -87 -49 -96 -56 -8
-8 -18 -14 -21 -14 -7 0 -190 -111 -198 -120 -3 -3 -34 -25 -70 -50 -346 -237
-743 -641 -935 -950 -45 -74 -106 -184 -110 -200 -1 -3 -11 -25 -22 -50 -19
-44 -38 -94 -102 -270 -41 -114 -111 -423 -127 -565 -3 -33 -8 -69 -11 -80 -3
-11 -6 -110 -8 -220 -3 -200 8 -309 45 -445 63 -236 180 -458 365 -695 71 -90
130 -151 265 -275 51 -47 98 -90 104 -96 12 -12 221 -163 247 -179 9 -5 35
-23 58 -38 62 -41 250 -136 301 -152 3 -1 19 -7 35 -14 87 -36 300 -101 378
-115 15 -2 35 -7 45 -10 23 -7 61 -14 172 -30 182 -28 227 -30 475 -31 265 0
365 7 513 36 30 6 56 8 59 5 4 -3 12 -1 19 4 6 6 16 10 20 8 5 -1 29 2 54 7
49 9 54 10 121 19 25 3 59 10 77 15 18 5 32 8 32 5 0 -3 8 0 18 5 9 5 33 12
53 15 19 3 62 12 95 21 77 21 120 32 159 40 11 3 79 23 150 45 72 23 137 43
145 45 15 3 203 70 230 82 8 3 20 7 25 9 28 6 313 138 400 184 191 102 494
290 665 414 143 104 240 179 294 228 91 81 226 217 273 273 23 28 53 64 68 80
49 56 177 228 188 254 7 14 14 28 18 31 6 5 88 174 109 225 12 28 76 214 78
225 0 3 3 12 6 20 14 45 77 365 74 378 -1 4 2 30 5 57 23 153 23 510 2 546 -3
3 -7 39 -11 80 -3 41 -8 78 -11 82 -2 4 -7 24 -9 45 -3 20 -7 45 -10 54 -3 9
-6 25 -8 35 -2 10 -9 38 -16 63 -7 25 -14 52 -15 60 -27 125 -149 411 -230
541 -131 209 -324 393 -565 541 -418 256 -778 395 -1315 508 -151 32 -161 34
-225 45 -19 3 -60 11 -90 16 -30 6 -71 12 -90 13 -19 2 -55 6 -80 10 -25 4
-61 9 -80 12 -45 7 -514 16 -520 11z"/>
<path d="M2325 4764 c-21 -12 -43 -20 -48 -17 -5 3 -50 -14 -98 -38 -76 -37
-89 -47 -90 -69 0 -14 -2 -68 -4 -120 -5 -144 -14 -338 -20 -400 -3 -30 -7
-93 -10 -140 -3 -47 -7 -110 -10 -140 -3 -30 -7 -82 -10 -115 -3 -33 -7 -78
-10 -100 -2 -22 -7 -71 -10 -110 -4 -38 -8 -81 -10 -95 -5 -31 -13 -105 -21
-185 -3 -33 -7 -73 -9 -90 -3 -34 -14 -127 -20 -165 -2 -14 -6 -43 -9 -65 -3
-22 -8 -60 -12 -85 -10 -68 -11 -83 -13 -110 -1 -21 -5 -17 -26 25 -39 81 -67
105 -124 105 -30 0 -203 -83 -209 -101 -2 -5 -8 -9 -14 -9 -16 0 -89 -58 -134
-107 -23 -24 -60 -80 -82 -123 -40 -79 -41 -80 -39 -180 l2 -101 55 -31 c30
-16 57 -33 60 -37 15 -19 76 -53 127 -72 32 -11 66 -24 76 -30 26 -14 117 -20
157 -9 20 5 45 18 55 27 38 35 72 51 118 58 52 8 51 5 67 120 6 44 13 91 15
105 3 24 22 155 30 210 3 22 8 56 21 160 2 14 6 49 10 79 3 30 7 62 9 71 2 9
6 39 9 66 4 27 9 65 11 84 3 19 7 55 10 80 3 25 8 56 10 70 4 24 8 58 20 183
3 28 8 75 11 102 9 70 13 101 19 175 3 36 8 78 11 95 3 16 7 52 9 80 3 27 7
75 10 105 12 128 16 168 20 226 5 76 16 178 20 182 2 2 11 -25 21 -60 10 -34
17 -63 15 -63 -2 0 20 -45 48 -101 68 -132 175 -274 343 -455 49 -53 75 -53
141 1 54 44 75 58 93 64 12 4 28 14 37 24 15 16 10 24 -65 102 -80 85 -194
230 -238 305 -13 22 -27 42 -30 45 -6 5 -29 45 -94 165 -53 97 -139 329 -148
399 -5 35 -8 36 -53 10z m-627 -2102 c18 -37 36 -83 39 -102 l6 -35 -24 16
c-13 8 -42 23 -64 31 -35 14 -44 14 -65 2 -14 -7 -28 -13 -32 -14 -10 0 1 48
18 82 14 27 72 88 84 87 3 0 20 -30 38 -67z"/>
<path d="M4854 4707 c-57 -29 -99 -57 -97 -64 2 -6 -14 -21 -36 -34 -34 -19
-41 -28 -42 -53 0 -17 -2 -49 -4 -71 -3 -40 -13 -168 -20 -260 -8 -103 -16
-212 -20 -260 -2 -27 -7 -86 -10 -130 -3 -44 -8 -96 -10 -115 -2 -19 -7 -71
-10 -115 -4 -44 -8 -93 -10 -110 -1 -16 -6 -64 -10 -105 -7 -86 -12 -136 -19
-200 -6 -49 -13 -115 -21 -195 -2 -27 -7 -71 -11 -96 -10 -79 -15 -132 -17
-186 -1 -29 -2 -53 -2 -53 0 4 -104 37 -107 34 -3 -2 -23 12 -44 31 -44 41
-161 101 -214 111 -72 13 -142 5 -204 -24 -78 -37 -241 -137 -267 -165 -71
-75 -83 -190 -32 -298 66 -142 209 -248 341 -253 77 -3 141 12 204 45 23 13
45 26 48 29 6 6 13 10 125 70 44 24 100 64 125 89 25 26 68 57 96 70 l51 23
46 237 c26 130 49 250 51 266 7 48 19 163 30 280 4 39 9 81 11 95 2 14 7 61
11 105 4 44 8 91 9 105 2 14 6 59 9 100 4 41 9 93 11 115 10 99 23 250 31 355
3 41 7 84 9 95 2 11 4 36 4 55 l1 34 17 -24 c62 -89 173 -197 280 -274 51 -36
97 -66 103 -66 5 0 10 -4 10 -9 0 -16 65 -40 110 -39 44 0 87 19 145 64 28 21
31 28 26 60 -4 22 -14 41 -26 48 -35 20 -196 127 -223 149 -183 147 -340 408
-345 575 0 6 -1 12 -1 11 -1 0 -46 -23 -102 -52z m-782 -2058 c22 -11 36 -24
32 -28 -5 -4 -37 -29 -71 -55 -64 -48 -83 -81 -83 -151 l0 -30 -20 25 c-40 52
-62 109 -65 166 -3 66 9 111 33 116 26 6 128 -19 174 -43z"/>
<path d="M3870 1902 c-19 -9 -42 -17 -50 -18 -23 -4 -160 -76 -160 -84 0 -10
-81 -53 -87 -46 -4 3 -2 6 3 6 6 0 19 7 30 15 13 10 1 8 -36 -6 -118 -46 -212
-79 -235 -83 -14 -3 -33 -7 -43 -10 -19 -6 -61 -14 -112 -21 -19 -3 -45 -8
-56 -10 -81 -18 -359 -24 -494 -12 -100 8 -226 33 -330 64 -47 14 -105 31
-130 37 -25 7 -60 21 -78 30 -18 9 -41 14 -52 11 -28 -9 -170 -104 -170 -114
0 -5 13 -14 30 -21 17 -7 30 -16 30 -20 0 -10 133 -75 175 -85 17 -5 37 -10
45 -12 8 -2 25 -6 37 -8 11 -1 29 -5 40 -8 21 -7 107 -18 178 -23 49 -4 255
-7 265 -5 3 1 50 4 105 6 86 3 122 7 195 20 8 1 35 6 60 10 68 11 205 49 300
84 99 36 390 180 390 192 0 5 5 9 11 9 7 0 148 84 178 107 15 11 -10 8 -39 -5z"/>
</g>
</svg>
