<?xml version="1.0" encoding="UTF-8" standalone="no"?><!DOCTYPE svg PUBLIC "-//W3C//DTD SVG 1.1//EN" "http://www.w3.org/Graphics/SVG/1.1/DTD/svg11.dtd"><svg width="100%" height="100%" viewBox="0 0 2067 2134" version="1.1" xmlns="http://www.w3.org/2000/svg" xmlns:xlink="http://www.w3.org/1999/xlink" xml:space="preserve" xmlns:serif="http://www.serif.com/" style="fill-rule:evenodd;clip-rule:evenodd;stroke-linejoin:round;stroke-miterlimit:2;"><path d="M1033.33,33.333c570.417,0 1033.33,462.917 1033.33,1033.33c-0,570.416 -462.917,1033.33 -1033.33,1033.33c-570.416,0 -1033.33,-462.917 -1033.33,-1033.33c-0,-570.417 462.917,-1033.33 1033.33,-1033.33Zm419.584,1520.42c33.75,-0 63.333,-26.25 63.333,-64.167c-0,-37.916 -15,-52.5 -40.417,-68.75c-297.5,-177.916 -646.25,-184.583 -987.5,-109.166c-31.25,6.666 -56.666,27.083 -56.666,70c-0,33.75 25.416,65.833 65.833,65.833c12.083,-0 33.333,-6.667 49.583,-10.833c298.75,-61.25 601.25,-54.584 861.25,102.083c16.25,9.583 27.084,15 44.584,15Zm112.083,-273.333c45.417,-0 80.417,-36.25 80.833,-81.25c0,-36.25 -13.333,-62.084 -47.083,-82.084c-205.833,-122.5 -467.083,-189.583 -737.5,-189.583c-173.333,0 -291.667,24.167 -407.5,56.667c-42.917,12.083 -64.583,41.666 -64.583,86.25c-0,44.583 36.25,80.833 80.833,80.833c18.75,0 29.583,-5.417 49.583,-10.833c345.417,-93.75 733.75,-31.667 994.167,122.5c15,7.916 29.583,17.5 51.25,17.5Zm129.167,-317.5c50.833,-0 96.666,-40.417 96.666,-97.084c0,-49.583 -21.25,-75.416 -53.75,-94.166c-232.916,-135.834 -551.666,-199.167 -855.833,-199.167c-178.75,0 -342.917,20.417 -489.583,63.333c-37.5,10.834 -72.5,42.917 -72.5,99.584c-0,55.416 42.083,98.333 97.083,98.333c20,-0 38.75,-6.667 53.75,-10.833c343.333,-95.834 873.75,-53.334 1170.42,123.75c18.75,10.833 32.083,16.25 53.75,16.25Z" style="fill:#1ed760;"/></svg>